solid ascii
  facet normal 1.000000e+000 1.224349e-015 0.000000e+000
    outer loop
      vertex   3.382215e+001 -5.803432e+000 1.000000e+001
      vertex   3.382215e+001 -5.803432e+000 0.000000e+000
      vertex   3.382215e+001 0.000000e+000 1.000000e+001
    endloop
  endfacet
  facet normal 1.000000e+000 1.224349e-015 0.000000e+000
    outer loop
      vertex   3.382215e+001 0.000000e+000 1.000000e+001
      vertex   3.382215e+001 -5.803432e+000 0.000000e+000
      vertex   3.382215e+001 0.000000e+000 0.000000e+000
    endloop
  endfacet
  facet normal 9.097971e-001 -4.150534e-001 0.000000e+000
    outer loop
      vertex   1.822153e+001 -4.000000e+001 1.000000e+001
      vertex   1.822153e+001 -4.000000e+001 0.000000e+000
      vertex   3.382215e+001 -5.803432e+000 1.000000e+001
    endloop
  endfacet
  facet normal 9.097971e-001 -4.150534e-001 0.000000e+000
    outer loop
      vertex   3.382215e+001 -5.803432e+000 1.000000e+001
      vertex   1.822153e+001 -4.000000e+001 0.000000e+000
      vertex   3.382215e+001 -5.803432e+000 0.000000e+000
    endloop
  endfacet
  facet normal 0.000000e+000 -1.000000e+000 0.000000e+000
    outer loop
      vertex   8.174727e+000 -4.000000e+001 1.000000e+001
      vertex   8.174727e+000 -4.000000e+001 0.000000e+000
      vertex   1.822153e+001 -4.000000e+001 1.000000e+001
    endloop
  endfacet
  facet normal 0.000000e+000 -1.000000e+000 -0.000000e+000
    outer loop
      vertex   1.822153e+001 -4.000000e+001 1.000000e+001
      vertex   8.174727e+000 -4.000000e+001 0.000000e+000
      vertex   1.822153e+001 -4.000000e+001 0.000000e+000
    endloop
  endfacet
  facet normal -9.101263e-001 4.143309e-001 0.000000e+000
    outer loop
      vertex   2.293292e+001 -7.581903e+000 1.000000e+001
      vertex   2.293292e+001 -7.581903e+000 0.000000e+000
      vertex   8.174727e+000 -4.000000e+001 1.000000e+001
    endloop
  endfacet
  facet normal -9.101263e-001 4.143309e-001 0.000000e+000
    outer loop
      vertex   8.174727e+000 -4.000000e+001 1.000000e+001
      vertex   2.293292e+001 -7.581903e+000 0.000000e+000
      vertex   8.174727e+000 -4.000000e+001 0.000000e+000
    endloop
  endfacet
  facet normal 0.000000e+000 -1.000000e+000 0.000000e+000
    outer loop
      vertex   3.681747e+000 -7.581903e+000 1.000000e+001
      vertex   3.681747e+000 -7.581903e+000 0.000000e+000
      vertex   2.293292e+001 -7.581903e+000 1.000000e+001
    endloop
  endfacet
  facet normal 0.000000e+000 -1.000000e+000 -0.000000e+000
    outer loop
      vertex   2.293292e+001 -7.581903e+000 1.000000e+001
      vertex   3.681747e+000 -7.581903e+000 0.000000e+000
      vertex   2.293292e+001 -7.581903e+000 0.000000e+000
    endloop
  endfacet
  facet normal -1.000000e+000 -0.000000e+000 -0.000000e+000
    outer loop
      vertex   3.681747e+000 0.000000e+000 1.000000e+001
      vertex   3.681747e+000 0.000000e+000 0.000000e+000
      vertex   3.681747e+000 -7.581903e+000 1.000000e+001
    endloop
  endfacet
  facet normal -1.000000e+000 -0.000000e+000 -0.000000e+000
    outer loop
      vertex   3.681747e+000 -7.581903e+000 1.000000e+001
      vertex   3.681747e+000 0.000000e+000 0.000000e+000
      vertex   3.681747e+000 -7.581903e+000 0.000000e+000
    endloop
  endfacet
  facet normal 0.000000e+000 1.000000e+000 0.000000e+000
    outer loop
      vertex   3.382215e+001 0.000000e+000 1.000000e+001
      vertex   3.382215e+001 0.000000e+000 0.000000e+000
      vertex   3.681747e+000 0.000000e+000 1.000000e+001
    endloop
  endfacet
  facet normal 0.000000e+000 1.000000e+000 0.000000e+000
    outer loop
      vertex   3.681747e+000 0.000000e+000 1.000000e+001
      vertex   3.382215e+001 0.000000e+000 0.000000e+000
      vertex   3.681747e+000 0.000000e+000 0.000000e+000
    endloop
  endfacet
  facet normal 0.000000e+000 -0.000000e+000 1.000000e+000
    outer loop
      vertex   1.822153e+001 -4.000000e+001 1.000000e+001
      vertex   3.382215e+001 -5.803432e+000 1.000000e+001
      vertex   2.293292e+001 -7.581903e+000 1.000000e+001
    endloop
  endfacet
  facet normal 0.000000e+000 0.000000e+000 1.000000e+000
    outer loop
      vertex   8.174727e+000 -4.000000e+001 1.000000e+001
      vertex   1.822153e+001 -4.000000e+001 1.000000e+001
      vertex   2.293292e+001 -7.581903e+000 1.000000e+001
    endloop
  endfacet
  facet normal 0.000000e+000 0.000000e+000 1.000000e+000
    outer loop
      vertex   3.382215e+001 -5.803432e+000 1.000000e+001
      vertex   3.382215e+001 0.000000e+000 1.000000e+001
      vertex   2.293292e+001 -7.581903e+000 1.000000e+001
    endloop
  endfacet
  facet normal 0.000000e+000 -0.000000e+000 1.000000e+000
    outer loop
      vertex   2.293292e+001 -7.581903e+000 1.000000e+001
      vertex   3.382215e+001 0.000000e+000 1.000000e+001
      vertex   3.681747e+000 0.000000e+000 1.000000e+001
    endloop
  endfacet
  facet normal 0.000000e+000 -0.000000e+000 1.000000e+000
    outer loop
      vertex   3.681747e+000 -7.581903e+000 1.000000e+001
      vertex   2.293292e+001 -7.581903e+000 1.000000e+001
      vertex   3.681747e+000 0.000000e+000 1.000000e+001
    endloop
  endfacet
  facet normal 0.000000e+000 0.000000e+000 -1.000000e+000
    outer loop
      vertex   3.681747e+000 -7.581903e+000 0.000000e+000
      vertex   3.681747e+000 0.000000e+000 0.000000e+000
      vertex   2.293292e+001 -7.581903e+000 0.000000e+000
    endloop
  endfacet
  facet normal 0.000000e+000 0.000000e+000 -1.000000e+000
    outer loop
      vertex   2.293292e+001 -7.581903e+000 0.000000e+000
      vertex   3.681747e+000 0.000000e+000 0.000000e+000
      vertex   3.382215e+001 0.000000e+000 0.000000e+000
    endloop
  endfacet
  facet normal -0.000000e+000 0.000000e+000 -1.000000e+000
    outer loop
      vertex   3.382215e+001 -5.803432e+000 0.000000e+000
      vertex   2.293292e+001 -7.581903e+000 0.000000e+000
      vertex   3.382215e+001 0.000000e+000 0.000000e+000
    endloop
  endfacet
  facet normal -0.000000e+000 0.000000e+000 -1.000000e+000
    outer loop
      vertex   3.382215e+001 -5.803432e+000 0.000000e+000
      vertex   1.822153e+001 -4.000000e+001 0.000000e+000
      vertex   2.293292e+001 -7.581903e+000 0.000000e+000
    endloop
  endfacet
  facet normal -0.000000e+000 0.000000e+000 -1.000000e+000
    outer loop
      vertex   2.293292e+001 -7.581903e+000 0.000000e+000
      vertex   1.822153e+001 -4.000000e+001 0.000000e+000
      vertex   8.174727e+000 -4.000000e+001 0.000000e+000
    endloop
  endfacet
endsolid