solid ascii
  facet normal 1.000000e+000 -0.000000e+000 0.000000e+000
    outer loop
      vertex   1.535101e+001 -1.460218e+001 1.000000e+001
      vertex   1.535101e+001 -1.460218e+001 0.000000e+000
      vertex   1.535101e+001 0.000000e+000 1.000000e+001
    endloop
  endfacet
  facet normal 1.000000e+000 -0.000000e+000 0.000000e+000
    outer loop
      vertex   1.535101e+001 0.000000e+000 1.000000e+001
      vertex   1.535101e+001 -1.460218e+001 0.000000e+000
      vertex   1.535101e+001 0.000000e+000 0.000000e+000
    endloop
  endfacet
  facet normal -7.010892e-001 7.130736e-001 0.000000e+000
    outer loop
      vertex   3.020281e+001 0.000000e+000 1.000000e+001
      vertex   3.020281e+001 0.000000e+000 0.000000e+000
      vertex   1.535101e+001 -1.460218e+001 1.000000e+001
    endloop
  endfacet
  facet normal -7.010892e-001 7.130736e-001 0.000000e+000
    outer loop
      vertex   1.535101e+001 -1.460218e+001 1.000000e+001
      vertex   3.020281e+001 0.000000e+000 0.000000e+000
      vertex   1.535101e+001 -1.460218e+001 0.000000e+000
    endloop
  endfacet
  facet normal 0.000000e+000 1.000000e+000 0.000000e+000
    outer loop
      vertex   4.218409e+001 0.000000e+000 1.000000e+001
      vertex   4.218409e+001 0.000000e+000 0.000000e+000
      vertex   3.020281e+001 0.000000e+000 1.000000e+001
    endloop
  endfacet
  facet normal 0.000000e+000 1.000000e+000 0.000000e+000
    outer loop
      vertex   3.020281e+001 0.000000e+000 1.000000e+001
      vertex   4.218409e+001 0.000000e+000 0.000000e+000
      vertex   3.020281e+001 0.000000e+000 0.000000e+000
    endloop
  endfacet
  facet normal 7.013064e-001 -7.128600e-001 0.000000e+000
    outer loop
      vertex   2.293292e+001 -1.893916e+001 1.000000e+001
      vertex   2.293292e+001 -1.893916e+001 0.000000e+000
      vertex   4.218409e+001 0.000000e+000 1.000000e+001
    endloop
  endfacet
  facet normal 7.013064e-001 -7.128600e-001 0.000000e+000
    outer loop
      vertex   4.218409e+001 0.000000e+000 1.000000e+001
      vertex   2.293292e+001 -1.893916e+001 0.000000e+000
      vertex   4.218409e+001 0.000000e+000 0.000000e+000
    endloop
  endfacet
  facet normal 7.039711e-001 7.102286e-001 0.000000e+000
    outer loop
      vertex   4.418097e+001 -4.000000e+001 1.000000e+001
      vertex   4.418097e+001 -4.000000e+001 0.000000e+000
      vertex   2.293292e+001 -1.893916e+001 1.000000e+001
    endloop
  endfacet
  facet normal 7.039711e-001 7.102286e-001 0.000000e+000
    outer loop
      vertex   2.293292e+001 -1.893916e+001 1.000000e+001
      vertex   4.418097e+001 -4.000000e+001 0.000000e+000
      vertex   2.293292e+001 -1.893916e+001 0.000000e+000
    endloop
  endfacet
  facet normal 0.000000e+000 -1.000000e+000 0.000000e+000
    outer loop
      vertex   3.126365e+001 -4.000000e+001 1.000000e+001
      vertex   3.126365e+001 -4.000000e+001 0.000000e+000
      vertex   4.418097e+001 -4.000000e+001 1.000000e+001
    endloop
  endfacet
  facet normal 0.000000e+000 -1.000000e+000 -0.000000e+000
    outer loop
      vertex   4.418097e+001 -4.000000e+001 1.000000e+001
      vertex   3.126365e+001 -4.000000e+001 0.000000e+000
      vertex   4.418097e+001 -4.000000e+001 0.000000e+000
    endloop
  endfacet
  facet normal -7.036150e-001 -7.105814e-001 -0.000000e+000
    outer loop
      vertex   1.535101e+001 -2.424337e+001 1.000000e+001
      vertex   1.535101e+001 -2.424337e+001 0.000000e+000
      vertex   3.126365e+001 -4.000000e+001 1.000000e+001
    endloop
  endfacet
  facet normal -7.036150e-001 -7.105814e-001 0.000000e+000
    outer loop
      vertex   3.126365e+001 -4.000000e+001 1.000000e+001
      vertex   1.535101e+001 -2.424337e+001 0.000000e+000
      vertex   3.126365e+001 -4.000000e+001 0.000000e+000
    endloop
  endfacet
  facet normal 1.000000e+000 -0.000000e+000 0.000000e+000
    outer loop
      vertex   1.535101e+001 -4.000000e+001 1.000000e+001
      vertex   1.535101e+001 -4.000000e+001 0.000000e+000
      vertex   1.535101e+001 -2.424337e+001 1.000000e+001
    endloop
  endfacet
  facet normal 1.000000e+000 -0.000000e+000 0.000000e+000
    outer loop
      vertex   1.535101e+001 -2.424337e+001 1.000000e+001
      vertex   1.535101e+001 -4.000000e+001 0.000000e+000
      vertex   1.535101e+001 -2.424337e+001 0.000000e+000
    endloop
  endfacet
  facet normal 0.000000e+000 -1.000000e+000 0.000000e+000
    outer loop
      vertex   5.023401e+000 -4.000000e+001 1.000000e+001
      vertex   5.023401e+000 -4.000000e+001 0.000000e+000
      vertex   1.535101e+001 -4.000000e+001 1.000000e+001
    endloop
  endfacet
  facet normal 0.000000e+000 -1.000000e+000 -0.000000e+000
    outer loop
      vertex   1.535101e+001 -4.000000e+001 1.000000e+001
      vertex   5.023401e+000 -4.000000e+001 0.000000e+000
      vertex   1.535101e+001 -4.000000e+001 0.000000e+000
    endloop
  endfacet
  facet normal -1.000000e+000 2.220446e-017 0.000000e+000
    outer loop
      vertex   5.023401e+000 0.000000e+000 1.000000e+001
      vertex   5.023401e+000 0.000000e+000 0.000000e+000
      vertex   5.023401e+000 -4.000000e+001 1.000000e+001
    endloop
  endfacet
  facet normal -1.000000e+000 2.220446e-017 0.000000e+000
    outer loop
      vertex   5.023401e+000 -4.000000e+001 1.000000e+001
      vertex   5.023401e+000 0.000000e+000 0.000000e+000
      vertex   5.023401e+000 -4.000000e+001 0.000000e+000
    endloop
  endfacet
  facet normal 0.000000e+000 1.000000e+000 0.000000e+000
    outer loop
      vertex   1.535101e+001 0.000000e+000 1.000000e+001
      vertex   1.535101e+001 0.000000e+000 0.000000e+000
      vertex   5.023401e+000 0.000000e+000 1.000000e+001
    endloop
  endfacet
  facet normal 0.000000e+000 1.000000e+000 0.000000e+000
    outer loop
      vertex   5.023401e+000 0.000000e+000 1.000000e+001
      vertex   1.535101e+001 0.000000e+000 0.000000e+000
      vertex   5.023401e+000 0.000000e+000 0.000000e+000
    endloop
  endfacet
  facet normal 0.000000e+000 0.000000e+000 1.000000e+000
    outer loop
      vertex   1.535101e+001 0.000000e+000 1.000000e+001
      vertex   5.023401e+000 0.000000e+000 1.000000e+001
      vertex   1.535101e+001 -1.460218e+001 1.000000e+001
    endloop
  endfacet
  facet normal 0.000000e+000 0.000000e+000 1.000000e+000
    outer loop
      vertex   1.535101e+001 -1.460218e+001 1.000000e+001
      vertex   5.023401e+000 0.000000e+000 1.000000e+001
      vertex   1.535101e+001 -2.424337e+001 1.000000e+001
    endloop
  endfacet
  facet normal 0.000000e+000 0.000000e+000 1.000000e+000
    outer loop
      vertex   2.293292e+001 -1.893916e+001 1.000000e+001
      vertex   1.535101e+001 -2.424337e+001 1.000000e+001
      vertex   3.126365e+001 -4.000000e+001 1.000000e+001
    endloop
  endfacet
  facet normal 0.000000e+000 0.000000e+000 1.000000e+000
    outer loop
      vertex   4.418097e+001 -4.000000e+001 1.000000e+001
      vertex   2.293292e+001 -1.893916e+001 1.000000e+001
      vertex   3.126365e+001 -4.000000e+001 1.000000e+001
    endloop
  endfacet
  facet normal -0.000000e+000 0.000000e+000 1.000000e+000
    outer loop
      vertex   5.023401e+000 0.000000e+000 1.000000e+001
      vertex   5.023401e+000 -4.000000e+001 1.000000e+001
      vertex   1.535101e+001 -2.424337e+001 1.000000e+001
    endloop
  endfacet
  facet normal -0.000000e+000 0.000000e+000 1.000000e+000
    outer loop
      vertex   1.535101e+001 -2.424337e+001 1.000000e+001
      vertex   5.023401e+000 -4.000000e+001 1.000000e+001
      vertex   1.535101e+001 -4.000000e+001 1.000000e+001
    endloop
  endfacet
  facet normal -0.000000e+000 0.000000e+000 1.000000e+000
    outer loop
      vertex   1.535101e+001 -1.460218e+001 1.000000e+001
      vertex   1.535101e+001 -2.424337e+001 1.000000e+001
      vertex   2.293292e+001 -1.893916e+001 1.000000e+001
    endloop
  endfacet
  facet normal -0.000000e+000 0.000000e+000 1.000000e+000
    outer loop
      vertex   3.020281e+001 0.000000e+000 1.000000e+001
      vertex   2.293292e+001 -1.893916e+001 1.000000e+001
      vertex   4.218409e+001 0.000000e+000 1.000000e+001
    endloop
  endfacet
  facet normal 0.000000e+000 0.000000e+000 1.000000e+000
    outer loop
      vertex   3.020281e+001 0.000000e+000 1.000000e+001
      vertex   1.535101e+001 -1.460218e+001 1.000000e+001
      vertex   2.293292e+001 -1.893916e+001 1.000000e+001
    endloop
  endfacet
  facet normal -0.000000e+000 -0.000000e+000 -1.000000e+000
    outer loop
      vertex   1.535101e+001 0.000000e+000 0.000000e+000
      vertex   1.535101e+001 -1.460218e+001 0.000000e+000
      vertex   5.023401e+000 0.000000e+000 0.000000e+000
    endloop
  endfacet
  facet normal 0.000000e+000 0.000000e+000 -1.000000e+000
    outer loop
      vertex   5.023401e+000 0.000000e+000 0.000000e+000
      vertex   1.535101e+001 -1.460218e+001 0.000000e+000
      vertex   1.535101e+001 -2.424337e+001 0.000000e+000
    endloop
  endfacet
  facet normal 0.000000e+000 0.000000e+000 -1.000000e+000
    outer loop
      vertex   5.023401e+000 -4.000000e+001 0.000000e+000
      vertex   1.535101e+001 -2.424337e+001 0.000000e+000
      vertex   1.535101e+001 -4.000000e+001 0.000000e+000
    endloop
  endfacet
  facet normal 0.000000e+000 0.000000e+000 -1.000000e+000
    outer loop
      vertex   5.023401e+000 -4.000000e+001 0.000000e+000
      vertex   5.023401e+000 0.000000e+000 0.000000e+000
      vertex   1.535101e+001 -2.424337e+001 0.000000e+000
    endloop
  endfacet
  facet normal 0.000000e+000 0.000000e+000 -1.000000e+000
    outer loop
      vertex   1.535101e+001 -2.424337e+001 0.000000e+000
      vertex   1.535101e+001 -1.460218e+001 0.000000e+000
      vertex   2.293292e+001 -1.893916e+001 0.000000e+000
    endloop
  endfacet
  facet normal 0.000000e+000 0.000000e+000 -1.000000e+000
    outer loop
      vertex   3.126365e+001 -4.000000e+001 0.000000e+000
      vertex   2.293292e+001 -1.893916e+001 0.000000e+000
      vertex   4.418097e+001 -4.000000e+001 0.000000e+000
    endloop
  endfacet
  facet normal 0.000000e+000 0.000000e+000 -1.000000e+000
    outer loop
      vertex   3.126365e+001 -4.000000e+001 0.000000e+000
      vertex   1.535101e+001 -2.424337e+001 0.000000e+000
      vertex   2.293292e+001 -1.893916e+001 0.000000e+000
    endloop
  endfacet
  facet normal -0.000000e+000 0.000000e+000 -1.000000e+000
    outer loop
      vertex   4.218409e+001 0.000000e+000 0.000000e+000
      vertex   2.293292e+001 -1.893916e+001 0.000000e+000
      vertex   3.020281e+001 0.000000e+000 0.000000e+000
    endloop
  endfacet
  facet normal -0.000000e+000 0.000000e+000 -1.000000e+000
    outer loop
      vertex   3.020281e+001 0.000000e+000 0.000000e+000
      vertex   2.293292e+001 -1.893916e+001 0.000000e+000
      vertex   1.535101e+001 -1.460218e+001 0.000000e+000
    endloop
  endfacet
endsolid