solid ascii
  facet normal 1.000000e+000 -0.000000e+000 0.000000e+000
    outer loop
      vertex   3.716069e+001 -7.800312e+000 1.000000e+001
      vertex   3.716069e+001 -7.800312e+000 0.000000e+000
      vertex   3.716069e+001 0.000000e+000 1.000000e+001
    endloop
  endfacet
  facet normal 1.000000e+000 -0.000000e+000 0.000000e+000
    outer loop
      vertex   3.716069e+001 0.000000e+000 1.000000e+001
      vertex   3.716069e+001 -7.800312e+000 0.000000e+000
      vertex   3.716069e+001 0.000000e+000 0.000000e+000
    endloop
  endfacet
  facet normal 0.000000e+000 -1.000000e+000 0.000000e+000
    outer loop
      vertex   2.390016e+001 -7.800312e+000 1.000000e+001
      vertex   2.390016e+001 -7.800312e+000 0.000000e+000
      vertex   3.716069e+001 -7.800312e+000 1.000000e+001
    endloop
  endfacet
  facet normal 0.000000e+000 -1.000000e+000 -0.000000e+000
    outer loop
      vertex   3.716069e+001 -7.800312e+000 1.000000e+001
      vertex   2.390016e+001 -7.800312e+000 0.000000e+000
      vertex   3.716069e+001 -7.800312e+000 0.000000e+000
    endloop
  endfacet
  facet normal 1.000000e+000 -0.000000e+000 0.000000e+000
    outer loop
      vertex   2.390016e+001 -4.000000e+001 1.000000e+001
      vertex   2.390016e+001 -4.000000e+001 0.000000e+000
      vertex   2.390016e+001 -7.800312e+000 1.000000e+001
    endloop
  endfacet
  facet normal 1.000000e+000 -0.000000e+000 0.000000e+000
    outer loop
      vertex   2.390016e+001 -7.800312e+000 1.000000e+001
      vertex   2.390016e+001 -4.000000e+001 0.000000e+000
      vertex   2.390016e+001 -7.800312e+000 0.000000e+000
    endloop
  endfacet
  facet normal 0.000000e+000 -1.000000e+000 0.000000e+000
    outer loop
      vertex   1.357254e+001 -4.000000e+001 1.000000e+001
      vertex   1.357254e+001 -4.000000e+001 0.000000e+000
      vertex   2.390016e+001 -4.000000e+001 1.000000e+001
    endloop
  endfacet
  facet normal 0.000000e+000 -1.000000e+000 -0.000000e+000
    outer loop
      vertex   2.390016e+001 -4.000000e+001 1.000000e+001
      vertex   1.357254e+001 -4.000000e+001 0.000000e+000
      vertex   2.390016e+001 -4.000000e+001 0.000000e+000
    endloop
  endfacet
  facet normal -1.000000e+000 -0.000000e+000 -0.000000e+000
    outer loop
      vertex   1.357254e+001 -7.800312e+000 1.000000e+001
      vertex   1.357254e+001 -7.800312e+000 0.000000e+000
      vertex   1.357254e+001 -4.000000e+001 1.000000e+001
    endloop
  endfacet
  facet normal -1.000000e+000 -0.000000e+000 -0.000000e+000
    outer loop
      vertex   1.357254e+001 -4.000000e+001 1.000000e+001
      vertex   1.357254e+001 -7.800312e+000 0.000000e+000
      vertex   1.357254e+001 -4.000000e+001 0.000000e+000
    endloop
  endfacet
  facet normal 0.000000e+000 -1.000000e+000 0.000000e+000
    outer loop
      vertex   2.808112e-001 -7.800312e+000 1.000000e+001
      vertex   2.808112e-001 -7.800312e+000 0.000000e+000
      vertex   1.357254e+001 -7.800312e+000 1.000000e+001
    endloop
  endfacet
  facet normal 0.000000e+000 -1.000000e+000 -0.000000e+000
    outer loop
      vertex   1.357254e+001 -7.800312e+000 1.000000e+001
      vertex   2.808112e-001 -7.800312e+000 0.000000e+000
      vertex   1.357254e+001 -7.800312e+000 0.000000e+000
    endloop
  endfacet
  facet normal -1.000000e+000 -5.693224e-017 -0.000000e+000
    outer loop
      vertex   2.808112e-001 0.000000e+000 1.000000e+001
      vertex   2.808112e-001 0.000000e+000 0.000000e+000
      vertex   2.808112e-001 -7.800312e+000 1.000000e+001
    endloop
  endfacet
  facet normal -1.000000e+000 -5.693224e-017 0.000000e+000
    outer loop
      vertex   2.808112e-001 -7.800312e+000 1.000000e+001
      vertex   2.808112e-001 0.000000e+000 0.000000e+000
      vertex   2.808112e-001 -7.800312e+000 0.000000e+000
    endloop
  endfacet
  facet normal 0.000000e+000 1.000000e+000 0.000000e+000
    outer loop
      vertex   3.716069e+001 0.000000e+000 1.000000e+001
      vertex   3.716069e+001 0.000000e+000 0.000000e+000
      vertex   2.808112e-001 0.000000e+000 1.000000e+001
    endloop
  endfacet
  facet normal 0.000000e+000 1.000000e+000 0.000000e+000
    outer loop
      vertex   2.808112e-001 0.000000e+000 1.000000e+001
      vertex   3.716069e+001 0.000000e+000 0.000000e+000
      vertex   2.808112e-001 0.000000e+000 0.000000e+000
    endloop
  endfacet
  facet normal 0.000000e+000 -0.000000e+000 1.000000e+000
    outer loop
      vertex   3.716069e+001 -7.800312e+000 1.000000e+001
      vertex   3.716069e+001 0.000000e+000 1.000000e+001
      vertex   2.390016e+001 -7.800312e+000 1.000000e+001
    endloop
  endfacet
  facet normal 0.000000e+000 -0.000000e+000 1.000000e+000
    outer loop
      vertex   2.390016e+001 -7.800312e+000 1.000000e+001
      vertex   3.716069e+001 0.000000e+000 1.000000e+001
      vertex   1.357254e+001 -7.800312e+000 1.000000e+001
    endloop
  endfacet
  facet normal 0.000000e+000 0.000000e+000 1.000000e+000
    outer loop
      vertex   2.390016e+001 -4.000000e+001 1.000000e+001
      vertex   1.357254e+001 -7.800312e+000 1.000000e+001
      vertex   1.357254e+001 -4.000000e+001 1.000000e+001
    endloop
  endfacet
  facet normal 0.000000e+000 -0.000000e+000 1.000000e+000
    outer loop
      vertex   2.390016e+001 -4.000000e+001 1.000000e+001
      vertex   2.390016e+001 -7.800312e+000 1.000000e+001
      vertex   1.357254e+001 -7.800312e+000 1.000000e+001
    endloop
  endfacet
  facet normal 0.000000e+000 0.000000e+000 1.000000e+000
    outer loop
      vertex   3.716069e+001 0.000000e+000 1.000000e+001
      vertex   2.808112e-001 0.000000e+000 1.000000e+001
      vertex   1.357254e+001 -7.800312e+000 1.000000e+001
    endloop
  endfacet
  facet normal 0.000000e+000 0.000000e+000 1.000000e+000
    outer loop
      vertex   1.357254e+001 -7.800312e+000 1.000000e+001
      vertex   2.808112e-001 0.000000e+000 1.000000e+001
      vertex   2.808112e-001 -7.800312e+000 1.000000e+001
    endloop
  endfacet
  facet normal 0.000000e+000 0.000000e+000 -1.000000e+000
    outer loop
      vertex   2.808112e-001 -7.800312e+000 0.000000e+000
      vertex   2.808112e-001 0.000000e+000 0.000000e+000
      vertex   1.357254e+001 -7.800312e+000 0.000000e+000
    endloop
  endfacet
  facet normal 0.000000e+000 0.000000e+000 -1.000000e+000
    outer loop
      vertex   1.357254e+001 -7.800312e+000 0.000000e+000
      vertex   2.808112e-001 0.000000e+000 0.000000e+000
      vertex   3.716069e+001 0.000000e+000 0.000000e+000
    endloop
  endfacet
  facet normal 0.000000e+000 0.000000e+000 -1.000000e+000
    outer loop
      vertex   2.390016e+001 -7.800312e+000 0.000000e+000
      vertex   3.716069e+001 0.000000e+000 0.000000e+000
      vertex   3.716069e+001 -7.800312e+000 0.000000e+000
    endloop
  endfacet
  facet normal 0.000000e+000 0.000000e+000 -1.000000e+000
    outer loop
      vertex   2.390016e+001 -7.800312e+000 0.000000e+000
      vertex   1.357254e+001 -7.800312e+000 0.000000e+000
      vertex   3.716069e+001 0.000000e+000 0.000000e+000
    endloop
  endfacet
  facet normal -0.000000e+000 0.000000e+000 -1.000000e+000
    outer loop
      vertex   2.390016e+001 -7.800312e+000 0.000000e+000
      vertex   1.357254e+001 -4.000000e+001 0.000000e+000
      vertex   1.357254e+001 -7.800312e+000 0.000000e+000
    endloop
  endfacet
  facet normal -0.000000e+000 -0.000000e+000 -1.000000e+000
    outer loop
      vertex   2.390016e+001 -7.800312e+000 0.000000e+000
      vertex   2.390016e+001 -4.000000e+001 0.000000e+000
      vertex   1.357254e+001 -4.000000e+001 0.000000e+000
    endloop
  endfacet
endsolid