solid ascii
  facet normal 9.410648e-001 3.382263e-001 0.000000e+000
    outer loop
      vertex   2.124805e+001 -2.951638e+001 1.000000e+001
      vertex   2.124805e+001 -2.951638e+001 0.000000e+000
      vertex   1.063963e+001 0.000000e+000 1.000000e+001
    endloop
  endfacet
  facet normal 9.410648e-001 3.382263e-001 0.000000e+000
    outer loop
      vertex   1.063963e+001 0.000000e+000 1.000000e+001
      vertex   2.124805e+001 -2.951638e+001 0.000000e+000
      vertex   1.063963e+001 0.000000e+000 0.000000e+000
    endloop
  endfacet
  facet normal -9.410648e-001 3.382263e-001 0.000000e+000
    outer loop
      vertex   3.185647e+001 0.000000e+000 1.000000e+001
      vertex   3.185647e+001 0.000000e+000 0.000000e+000
      vertex   2.124805e+001 -2.951638e+001 1.000000e+001
    endloop
  endfacet
  facet normal -9.410648e-001 3.382263e-001 0.000000e+000
    outer loop
      vertex   2.124805e+001 -2.951638e+001 1.000000e+001
      vertex   3.185647e+001 0.000000e+000 0.000000e+000
      vertex   2.124805e+001 -2.951638e+001 0.000000e+000
    endloop
  endfacet
  facet normal 0.000000e+000 1.000000e+000 0.000000e+000
    outer loop
      vertex   4.221529e+001 0.000000e+000 1.000000e+001
      vertex   4.221529e+001 0.000000e+000 0.000000e+000
      vertex   3.185647e+001 0.000000e+000 1.000000e+001
    endloop
  endfacet
  facet normal 0.000000e+000 1.000000e+000 0.000000e+000
    outer loop
      vertex   3.185647e+001 0.000000e+000 1.000000e+001
      vertex   4.221529e+001 0.000000e+000 0.000000e+000
      vertex   3.185647e+001 0.000000e+000 0.000000e+000
    endloop
  endfacet
  facet normal 9.377046e-001 -3.474335e-001 0.000000e+000
    outer loop
      vertex   2.739470e+001 -4.000000e+001 1.000000e+001
      vertex   2.739470e+001 -4.000000e+001 0.000000e+000
      vertex   4.221529e+001 0.000000e+000 1.000000e+001
    endloop
  endfacet
  facet normal 9.377046e-001 -3.474335e-001 0.000000e+000
    outer loop
      vertex   4.221529e+001 0.000000e+000 1.000000e+001
      vertex   2.739470e+001 -4.000000e+001 0.000000e+000
      vertex   4.221529e+001 0.000000e+000 0.000000e+000
    endloop
  endfacet
  facet normal 0.000000e+000 -1.000000e+000 0.000000e+000
    outer loop
      vertex   1.510140e+001 -4.000000e+001 1.000000e+001
      vertex   1.510140e+001 -4.000000e+001 0.000000e+000
      vertex   2.739470e+001 -4.000000e+001 1.000000e+001
    endloop
  endfacet
  facet normal 0.000000e+000 -1.000000e+000 -0.000000e+000
    outer loop
      vertex   2.739470e+001 -4.000000e+001 1.000000e+001
      vertex   1.510140e+001 -4.000000e+001 0.000000e+000
      vertex   2.739470e+001 -4.000000e+001 0.000000e+000
    endloop
  endfacet
  facet normal -9.377046e-001 -3.474335e-001 -0.000000e+000
    outer loop
      vertex   2.808112e-001 0.000000e+000 1.000000e+001
      vertex   2.808112e-001 0.000000e+000 0.000000e+000
      vertex   1.510140e+001 -4.000000e+001 1.000000e+001
    endloop
  endfacet
  facet normal -9.377046e-001 -3.474335e-001 0.000000e+000
    outer loop
      vertex   1.510140e+001 -4.000000e+001 1.000000e+001
      vertex   2.808112e-001 0.000000e+000 0.000000e+000
      vertex   1.510140e+001 -4.000000e+001 0.000000e+000
    endloop
  endfacet
  facet normal 0.000000e+000 1.000000e+000 0.000000e+000
    outer loop
      vertex   1.063963e+001 0.000000e+000 1.000000e+001
      vertex   1.063963e+001 0.000000e+000 0.000000e+000
      vertex   2.808112e-001 0.000000e+000 1.000000e+001
    endloop
  endfacet
  facet normal 0.000000e+000 1.000000e+000 0.000000e+000
    outer loop
      vertex   2.808112e-001 0.000000e+000 1.000000e+001
      vertex   1.063963e+001 0.000000e+000 0.000000e+000
      vertex   2.808112e-001 0.000000e+000 0.000000e+000
    endloop
  endfacet
  facet normal 0.000000e+000 0.000000e+000 1.000000e+000
    outer loop
      vertex   1.063963e+001 0.000000e+000 1.000000e+001
      vertex   2.808112e-001 0.000000e+000 1.000000e+001
      vertex   2.124805e+001 -2.951638e+001 1.000000e+001
    endloop
  endfacet
  facet normal 0.000000e+000 0.000000e+000 1.000000e+000
    outer loop
      vertex   2.124805e+001 -2.951638e+001 1.000000e+001
      vertex   2.808112e-001 0.000000e+000 1.000000e+001
      vertex   1.510140e+001 -4.000000e+001 1.000000e+001
    endloop
  endfacet
  facet normal 0.000000e+000 0.000000e+000 1.000000e+000
    outer loop
      vertex   2.739470e+001 -4.000000e+001 1.000000e+001
      vertex   2.124805e+001 -2.951638e+001 1.000000e+001
      vertex   1.510140e+001 -4.000000e+001 1.000000e+001
    endloop
  endfacet
  facet normal 0.000000e+000 -0.000000e+000 1.000000e+000
    outer loop
      vertex   2.739470e+001 -4.000000e+001 1.000000e+001
      vertex   4.221529e+001 0.000000e+000 1.000000e+001
      vertex   2.124805e+001 -2.951638e+001 1.000000e+001
    endloop
  endfacet
  facet normal 0.000000e+000 -0.000000e+000 1.000000e+000
    outer loop
      vertex   2.124805e+001 -2.951638e+001 1.000000e+001
      vertex   4.221529e+001 0.000000e+000 1.000000e+001
      vertex   3.185647e+001 0.000000e+000 1.000000e+001
    endloop
  endfacet
  facet normal -0.000000e+000 -0.000000e+000 -1.000000e+000
    outer loop
      vertex   1.063963e+001 0.000000e+000 0.000000e+000
      vertex   2.124805e+001 -2.951638e+001 0.000000e+000
      vertex   2.808112e-001 0.000000e+000 0.000000e+000
    endloop
  endfacet
  facet normal 0.000000e+000 -0.000000e+000 -1.000000e+000
    outer loop
      vertex   2.808112e-001 0.000000e+000 0.000000e+000
      vertex   2.124805e+001 -2.951638e+001 0.000000e+000
      vertex   1.510140e+001 -4.000000e+001 0.000000e+000
    endloop
  endfacet
  facet normal 0.000000e+000 0.000000e+000 -1.000000e+000
    outer loop
      vertex   1.510140e+001 -4.000000e+001 0.000000e+000
      vertex   2.124805e+001 -2.951638e+001 0.000000e+000
      vertex   2.739470e+001 -4.000000e+001 0.000000e+000
    endloop
  endfacet
  facet normal 0.000000e+000 0.000000e+000 -1.000000e+000
    outer loop
      vertex   2.739470e+001 -4.000000e+001 0.000000e+000
      vertex   2.124805e+001 -2.951638e+001 0.000000e+000
      vertex   4.221529e+001 0.000000e+000 0.000000e+000
    endloop
  endfacet
  facet normal -0.000000e+000 0.000000e+000 -1.000000e+000
    outer loop
      vertex   4.221529e+001 0.000000e+000 0.000000e+000
      vertex   2.124805e+001 -2.951638e+001 0.000000e+000
      vertex   3.185647e+001 0.000000e+000 0.000000e+000
    endloop
  endfacet
endsolid