solid ascii
  facet normal 0.000000e+000 -1.000000e+000 0.000000e+000
    outer loop
      vertex   3.048362e+001 -4.000000e+001 1.000000e+001
      vertex   3.048362e+001 -4.000000e+001 0.000000e+000
      vertex   4.121685e+001 -4.000000e+001 1.000000e+001
    endloop
  endfacet
  facet normal 0.000000e+000 -1.000000e+000 -0.000000e+000
    outer loop
      vertex   4.121685e+001 -4.000000e+001 1.000000e+001
      vertex   3.048362e+001 -4.000000e+001 0.000000e+000
      vertex   4.121685e+001 -4.000000e+001 0.000000e+000
    endloop
  endfacet
  facet normal -8.250299e-001 -5.650890e-001 -0.000000e+000
    outer loop
      vertex   2.112324e+001 -2.633385e+001 1.000000e+001
      vertex   2.112324e+001 -2.633385e+001 0.000000e+000
      vertex   3.048362e+001 -4.000000e+001 1.000000e+001
    endloop
  endfacet
  facet normal -8.250299e-001 -5.650890e-001 0.000000e+000
    outer loop
      vertex   3.048362e+001 -4.000000e+001 1.000000e+001
      vertex   2.112324e+001 -2.633385e+001 0.000000e+000
      vertex   3.048362e+001 -4.000000e+001 0.000000e+000
    endloop
  endfacet
  facet normal 8.276639e-001 -5.612241e-001 0.000000e+000
    outer loop
      vertex   1.185647e+001 -4.000000e+001 1.000000e+001
      vertex   1.185647e+001 -4.000000e+001 0.000000e+000
      vertex   2.112324e+001 -2.633385e+001 1.000000e+001
    endloop
  endfacet
  facet normal 8.276639e-001 -5.612241e-001 0.000000e+000
    outer loop
      vertex   2.112324e+001 -2.633385e+001 1.000000e+001
      vertex   1.185647e+001 -4.000000e+001 0.000000e+000
      vertex   2.112324e+001 -2.633385e+001 0.000000e+000
    endloop
  endfacet
  facet normal 0.000000e+000 -1.000000e+000 0.000000e+000
    outer loop
      vertex   1.060842e+000 -4.000000e+001 1.000000e+001
      vertex   1.060842e+000 -4.000000e+001 0.000000e+000
      vertex   1.185647e+001 -4.000000e+001 1.000000e+001
    endloop
  endfacet
  facet normal 0.000000e+000 -1.000000e+000 -0.000000e+000
    outer loop
      vertex   1.185647e+001 -4.000000e+001 1.000000e+001
      vertex   1.060842e+000 -4.000000e+001 0.000000e+000
      vertex   1.185647e+001 -4.000000e+001 0.000000e+000
    endloop
  endfacet
  facet normal -8.267619e-001 5.625520e-001 0.000000e+000
    outer loop
      vertex   1.494540e+001 -1.959438e+001 1.000000e+001
      vertex   1.494540e+001 -1.959438e+001 0.000000e+000
      vertex   1.060842e+000 -4.000000e+001 1.000000e+001
    endloop
  endfacet
  facet normal -8.267619e-001 5.625520e-001 0.000000e+000
    outer loop
      vertex   1.060842e+000 -4.000000e+001 1.000000e+001
      vertex   1.494540e+001 -1.959438e+001 0.000000e+000
      vertex   1.060842e+000 -4.000000e+001 0.000000e+000
    endloop
  endfacet
  facet normal -8.263387e-001 -5.631735e-001 -0.000000e+000
    outer loop
      vertex   1.591264e+000 0.000000e+000 1.000000e+001
      vertex   1.591264e+000 0.000000e+000 0.000000e+000
      vertex   1.494540e+001 -1.959438e+001 1.000000e+001
    endloop
  endfacet
  facet normal -8.263387e-001 -5.631735e-001 0.000000e+000
    outer loop
      vertex   1.494540e+001 -1.959438e+001 1.000000e+001
      vertex   1.591264e+000 0.000000e+000 0.000000e+000
      vertex   1.494540e+001 -1.959438e+001 0.000000e+000
    endloop
  endfacet
  facet normal 0.000000e+000 1.000000e+000 0.000000e+000
    outer loop
      vertex   1.235569e+001 0.000000e+000 1.000000e+001
      vertex   1.235569e+001 0.000000e+000 0.000000e+000
      vertex   1.591264e+000 0.000000e+000 1.000000e+001
    endloop
  endfacet
  facet normal 0.000000e+000 1.000000e+000 0.000000e+000
    outer loop
      vertex   1.591264e+000 0.000000e+000 1.000000e+001
      vertex   1.235569e+001 0.000000e+000 0.000000e+000
      vertex   1.591264e+000 0.000000e+000 0.000000e+000
    endloop
  endfacet
  facet normal 8.267775e-001 5.625290e-001 0.000000e+000
    outer loop
      vertex   2.112324e+001 -1.288612e+001 1.000000e+001
      vertex   2.112324e+001 -1.288612e+001 0.000000e+000
      vertex   1.235569e+001 0.000000e+000 1.000000e+001
    endloop
  endfacet
  facet normal 8.267775e-001 5.625290e-001 0.000000e+000
    outer loop
      vertex   1.235569e+001 0.000000e+000 1.000000e+001
      vertex   2.112324e+001 -1.288612e+001 0.000000e+000
      vertex   1.235569e+001 0.000000e+000 0.000000e+000
    endloop
  endfacet
  facet normal -8.277085e-001 5.611583e-001 0.000000e+000
    outer loop
      vertex   2.985959e+001 0.000000e+000 1.000000e+001
      vertex   2.985959e+001 0.000000e+000 0.000000e+000
      vertex   2.112324e+001 -1.288612e+001 1.000000e+001
    endloop
  endfacet
  facet normal -8.277085e-001 5.611583e-001 0.000000e+000
    outer loop
      vertex   2.112324e+001 -1.288612e+001 1.000000e+001
      vertex   2.985959e+001 0.000000e+000 0.000000e+000
      vertex   2.112324e+001 -1.288612e+001 0.000000e+000
    endloop
  endfacet
  facet normal 0.000000e+000 1.000000e+000 0.000000e+000
    outer loop
      vertex   4.068643e+001 0.000000e+000 1.000000e+001
      vertex   4.068643e+001 0.000000e+000 0.000000e+000
      vertex   2.985959e+001 0.000000e+000 1.000000e+001
    endloop
  endfacet
  facet normal 0.000000e+000 1.000000e+000 0.000000e+000
    outer loop
      vertex   2.985959e+001 0.000000e+000 1.000000e+001
      vertex   4.068643e+001 0.000000e+000 0.000000e+000
      vertex   2.985959e+001 0.000000e+000 0.000000e+000
    endloop
  endfacet
  facet normal 8.263387e-001 -5.631735e-001 0.000000e+000
    outer loop
      vertex   2.733229e+001 -1.959438e+001 1.000000e+001
      vertex   2.733229e+001 -1.959438e+001 0.000000e+000
      vertex   4.068643e+001 0.000000e+000 1.000000e+001
    endloop
  endfacet
  facet normal 8.263387e-001 -5.631735e-001 0.000000e+000
    outer loop
      vertex   4.068643e+001 0.000000e+000 1.000000e+001
      vertex   2.733229e+001 -1.959438e+001 0.000000e+000
      vertex   4.068643e+001 0.000000e+000 0.000000e+000
    endloop
  endfacet
  facet normal 8.267619e-001 5.625520e-001 0.000000e+000
    outer loop
      vertex   4.121685e+001 -4.000000e+001 1.000000e+001
      vertex   4.121685e+001 -4.000000e+001 0.000000e+000
      vertex   2.733229e+001 -1.959438e+001 1.000000e+001
    endloop
  endfacet
  facet normal 8.267619e-001 5.625520e-001 0.000000e+000
    outer loop
      vertex   2.733229e+001 -1.959438e+001 1.000000e+001
      vertex   4.121685e+001 -4.000000e+001 0.000000e+000
      vertex   2.733229e+001 -1.959438e+001 0.000000e+000
    endloop
  endfacet
  facet normal 0.000000e+000 0.000000e+000 1.000000e+000
    outer loop
      vertex   4.121685e+001 -4.000000e+001 1.000000e+001
      vertex   2.733229e+001 -1.959438e+001 1.000000e+001
      vertex   3.048362e+001 -4.000000e+001 1.000000e+001
    endloop
  endfacet
  facet normal 0.000000e+000 0.000000e+000 1.000000e+000
    outer loop
      vertex   3.048362e+001 -4.000000e+001 1.000000e+001
      vertex   2.733229e+001 -1.959438e+001 1.000000e+001
      vertex   2.112324e+001 -2.633385e+001 1.000000e+001
    endloop
  endfacet
  facet normal 0.000000e+000 -0.000000e+000 1.000000e+000
    outer loop
      vertex   2.112324e+001 -2.633385e+001 1.000000e+001
      vertex   2.733229e+001 -1.959438e+001 1.000000e+001
      vertex   1.494540e+001 -1.959438e+001 1.000000e+001
    endloop
  endfacet
  facet normal 0.000000e+000 -0.000000e+000 1.000000e+000
    outer loop
      vertex   1.185647e+001 -4.000000e+001 1.000000e+001
      vertex   1.494540e+001 -1.959438e+001 1.000000e+001
      vertex   1.060842e+000 -4.000000e+001 1.000000e+001
    endloop
  endfacet
  facet normal 0.000000e+000 -0.000000e+000 1.000000e+000
    outer loop
      vertex   1.185647e+001 -4.000000e+001 1.000000e+001
      vertex   2.112324e+001 -2.633385e+001 1.000000e+001
      vertex   1.494540e+001 -1.959438e+001 1.000000e+001
    endloop
  endfacet
  facet normal 0.000000e+000 0.000000e+000 1.000000e+000
    outer loop
      vertex   4.068643e+001 0.000000e+000 1.000000e+001
      vertex   2.985959e+001 0.000000e+000 1.000000e+001
      vertex   2.733229e+001 -1.959438e+001 1.000000e+001
    endloop
  endfacet
  facet normal 0.000000e+000 -0.000000e+000 1.000000e+000
    outer loop
      vertex   2.733229e+001 -1.959438e+001 1.000000e+001
      vertex   2.985959e+001 0.000000e+000 1.000000e+001
      vertex   2.112324e+001 -1.288612e+001 1.000000e+001
    endloop
  endfacet
  facet normal 0.000000e+000 -0.000000e+000 1.000000e+000
    outer loop
      vertex   1.494540e+001 -1.959438e+001 1.000000e+001
      vertex   2.112324e+001 -1.288612e+001 1.000000e+001
      vertex   1.235569e+001 0.000000e+000 1.000000e+001
    endloop
  endfacet
  facet normal -0.000000e+000 -0.000000e+000 1.000000e+000
    outer loop
      vertex   1.591264e+000 0.000000e+000 1.000000e+001
      vertex   1.494540e+001 -1.959438e+001 1.000000e+001
      vertex   1.235569e+001 0.000000e+000 1.000000e+001
    endloop
  endfacet
  facet normal 0.000000e+000 0.000000e+000 1.000000e+000
    outer loop
      vertex   2.733229e+001 -1.959438e+001 1.000000e+001
      vertex   2.112324e+001 -1.288612e+001 1.000000e+001
      vertex   1.494540e+001 -1.959438e+001 1.000000e+001
    endloop
  endfacet
  facet normal 0.000000e+000 0.000000e+000 -1.000000e+000
    outer loop
      vertex   4.121685e+001 -4.000000e+001 0.000000e+000
      vertex   3.048362e+001 -4.000000e+001 0.000000e+000
      vertex   2.733229e+001 -1.959438e+001 0.000000e+000
    endloop
  endfacet
  facet normal -0.000000e+000 -0.000000e+000 -1.000000e+000
    outer loop
      vertex   2.733229e+001 -1.959438e+001 0.000000e+000
      vertex   3.048362e+001 -4.000000e+001 0.000000e+000
      vertex   2.112324e+001 -2.633385e+001 0.000000e+000
    endloop
  endfacet
  facet normal 0.000000e+000 -0.000000e+000 -1.000000e+000
    outer loop
      vertex   1.494540e+001 -1.959438e+001 0.000000e+000
      vertex   2.112324e+001 -2.633385e+001 0.000000e+000
      vertex   1.185647e+001 -4.000000e+001 0.000000e+000
    endloop
  endfacet
  facet normal 0.000000e+000 -0.000000e+000 -1.000000e+000
    outer loop
      vertex   1.060842e+000 -4.000000e+001 0.000000e+000
      vertex   1.494540e+001 -1.959438e+001 0.000000e+000
      vertex   1.185647e+001 -4.000000e+001 0.000000e+000
    endloop
  endfacet
  facet normal -0.000000e+000 0.000000e+000 -1.000000e+000
    outer loop
      vertex   2.733229e+001 -1.959438e+001 0.000000e+000
      vertex   2.112324e+001 -2.633385e+001 0.000000e+000
      vertex   1.494540e+001 -1.959438e+001 0.000000e+000
    endloop
  endfacet
  facet normal -0.000000e+000 0.000000e+000 -1.000000e+000
    outer loop
      vertex   2.112324e+001 -1.288612e+001 0.000000e+000
      vertex   1.494540e+001 -1.959438e+001 0.000000e+000
      vertex   1.235569e+001 0.000000e+000 0.000000e+000
    endloop
  endfacet
  facet normal -0.000000e+000 -0.000000e+000 -1.000000e+000
    outer loop
      vertex   2.112324e+001 -1.288612e+001 0.000000e+000
      vertex   2.733229e+001 -1.959438e+001 0.000000e+000
      vertex   1.494540e+001 -1.959438e+001 0.000000e+000
    endloop
  endfacet
  facet normal 0.000000e+000 -0.000000e+000 -1.000000e+000
    outer loop
      vertex   2.112324e+001 -1.288612e+001 0.000000e+000
      vertex   2.985959e+001 0.000000e+000 0.000000e+000
      vertex   2.733229e+001 -1.959438e+001 0.000000e+000
    endloop
  endfacet
  facet normal 0.000000e+000 0.000000e+000 -1.000000e+000
    outer loop
      vertex   2.733229e+001 -1.959438e+001 0.000000e+000
      vertex   2.985959e+001 0.000000e+000 0.000000e+000
      vertex   4.068643e+001 0.000000e+000 0.000000e+000
    endloop
  endfacet
  facet normal 0.000000e+000 0.000000e+000 -1.000000e+000
    outer loop
      vertex   1.494540e+001 -1.959438e+001 0.000000e+000
      vertex   1.591264e+000 0.000000e+000 0.000000e+000
      vertex   1.235569e+001 0.000000e+000 0.000000e+000
    endloop
  endfacet
endsolid