solid ascii
  facet normal -1.000000e+000 -0.000000e+000 -0.000000e+000
    outer loop
      vertex   2.018721e+001 -8.486739e+000 1.000000e+001
      vertex   2.018721e+001 -8.486739e+000 0.000000e+000
      vertex   2.018721e+001 -2.524181e+001 1.000000e+001
    endloop
  endfacet
  facet normal -1.000000e+000 -0.000000e+000 -0.000000e+000
    outer loop
      vertex   2.018721e+001 -2.524181e+001 1.000000e+001
      vertex   2.018721e+001 -8.486739e+000 0.000000e+000
      vertex   2.018721e+001 -2.524181e+001 0.000000e+000
    endloop
  endfacet
  facet normal 0.000000e+000 1.000000e+000 0.000000e+000
    outer loop
      vertex   2.018721e+001 -2.524181e+001 1.000000e+001
      vertex   2.018721e+001 -2.524181e+001 0.000000e+000
      vertex   8.892356e+000 -2.524181e+001 1.000000e+001
    endloop
  endfacet
  facet normal 0.000000e+000 1.000000e+000 0.000000e+000
    outer loop
      vertex   8.892356e+000 -2.524181e+001 1.000000e+001
      vertex   2.018721e+001 -2.524181e+001 0.000000e+000
      vertex   8.892356e+000 -2.524181e+001 0.000000e+000
    endloop
  endfacet
  facet normal 8.291886e-001 -5.589689e-001 0.000000e+000
    outer loop
      vertex   8.892356e+000 -2.524181e+001 1.000000e+001
      vertex   8.892356e+000 -2.524181e+001 0.000000e+000
      vertex   2.018721e+001 -8.486739e+000 1.000000e+001
    endloop
  endfacet
  facet normal 8.291886e-001 -5.589689e-001 0.000000e+000
    outer loop
      vertex   2.018721e+001 -8.486739e+000 1.000000e+001
      vertex   8.892356e+000 -2.524181e+001 0.000000e+000
      vertex   2.018721e+001 -8.486739e+000 0.000000e+000
    endloop
  endfacet
  facet normal 1.000000e+000 -0.000000e+000 0.000000e+000
    outer loop
      vertex   2.995320e+001 -2.524181e+001 1.000000e+001
      vertex   2.995320e+001 -2.524181e+001 0.000000e+000
      vertex   2.995320e+001 0.000000e+000 1.000000e+001
    endloop
  endfacet
  facet normal 1.000000e+000 -0.000000e+000 0.000000e+000
    outer loop
      vertex   2.995320e+001 0.000000e+000 1.000000e+001
      vertex   2.995320e+001 -2.524181e+001 0.000000e+000
      vertex   2.995320e+001 0.000000e+000 0.000000e+000
    endloop
  endfacet
  facet normal 0.000000e+000 1.000000e+000 0.000000e+000
    outer loop
      vertex   3.566303e+001 -2.524181e+001 1.000000e+001
      vertex   3.566303e+001 -2.524181e+001 0.000000e+000
      vertex   2.995320e+001 -2.524181e+001 1.000000e+001
    endloop
  endfacet
  facet normal 0.000000e+000 1.000000e+000 0.000000e+000
    outer loop
      vertex   2.995320e+001 -2.524181e+001 1.000000e+001
      vertex   3.566303e+001 -2.524181e+001 0.000000e+000
      vertex   2.995320e+001 -2.524181e+001 0.000000e+000
    endloop
  endfacet
  facet normal 1.000000e+000 -0.000000e+000 0.000000e+000
    outer loop
      vertex   3.566303e+001 -3.273011e+001 1.000000e+001
      vertex   3.566303e+001 -3.273011e+001 0.000000e+000
      vertex   3.566303e+001 -2.524181e+001 1.000000e+001
    endloop
  endfacet
  facet normal 1.000000e+000 -0.000000e+000 0.000000e+000
    outer loop
      vertex   3.566303e+001 -2.524181e+001 1.000000e+001
      vertex   3.566303e+001 -3.273011e+001 0.000000e+000
      vertex   3.566303e+001 -2.524181e+001 0.000000e+000
    endloop
  endfacet
  facet normal 0.000000e+000 -1.000000e+000 0.000000e+000
    outer loop
      vertex   2.995320e+001 -3.273011e+001 1.000000e+001
      vertex   2.995320e+001 -3.273011e+001 0.000000e+000
      vertex   3.566303e+001 -3.273011e+001 1.000000e+001
    endloop
  endfacet
  facet normal 0.000000e+000 -1.000000e+000 -0.000000e+000
    outer loop
      vertex   3.566303e+001 -3.273011e+001 1.000000e+001
      vertex   2.995320e+001 -3.273011e+001 0.000000e+000
      vertex   3.566303e+001 -3.273011e+001 0.000000e+000
    endloop
  endfacet
  facet normal 1.000000e+000 -0.000000e+000 0.000000e+000
    outer loop
      vertex   2.995320e+001 -4.000000e+001 1.000000e+001
      vertex   2.995320e+001 -4.000000e+001 0.000000e+000
      vertex   2.995320e+001 -3.273011e+001 1.000000e+001
    endloop
  endfacet
  facet normal 1.000000e+000 -0.000000e+000 0.000000e+000
    outer loop
      vertex   2.995320e+001 -3.273011e+001 1.000000e+001
      vertex   2.995320e+001 -4.000000e+001 0.000000e+000
      vertex   2.995320e+001 -3.273011e+001 0.000000e+000
    endloop
  endfacet
  facet normal 0.000000e+000 -1.000000e+000 0.000000e+000
    outer loop
      vertex   2.018721e+001 -4.000000e+001 1.000000e+001
      vertex   2.018721e+001 -4.000000e+001 0.000000e+000
      vertex   2.995320e+001 -4.000000e+001 1.000000e+001
    endloop
  endfacet
  facet normal 0.000000e+000 -1.000000e+000 -0.000000e+000
    outer loop
      vertex   2.995320e+001 -4.000000e+001 1.000000e+001
      vertex   2.018721e+001 -4.000000e+001 0.000000e+000
      vertex   2.995320e+001 -4.000000e+001 0.000000e+000
    endloop
  endfacet
  facet normal -1.000000e+000 -0.000000e+000 -0.000000e+000
    outer loop
      vertex   2.018721e+001 -3.273011e+001 1.000000e+001
      vertex   2.018721e+001 -3.273011e+001 0.000000e+000
      vertex   2.018721e+001 -4.000000e+001 1.000000e+001
    endloop
  endfacet
  facet normal -1.000000e+000 -0.000000e+000 -0.000000e+000
    outer loop
      vertex   2.018721e+001 -4.000000e+001 1.000000e+001
      vertex   2.018721e+001 -3.273011e+001 0.000000e+000
      vertex   2.018721e+001 -4.000000e+001 0.000000e+000
    endloop
  endfacet
  facet normal 0.000000e+000 -1.000000e+000 0.000000e+000
    outer loop
      vertex   2.464899e+000 -3.273011e+001 1.000000e+001
      vertex   2.464899e+000 -3.273011e+001 0.000000e+000
      vertex   2.018721e+001 -3.273011e+001 1.000000e+001
    endloop
  endfacet
  facet normal 0.000000e+000 -1.000000e+000 -0.000000e+000
    outer loop
      vertex   2.018721e+001 -3.273011e+001 1.000000e+001
      vertex   2.464899e+000 -3.273011e+001 0.000000e+000
      vertex   2.018721e+001 -3.273011e+001 0.000000e+000
    endloop
  endfacet
  facet normal -1.000000e+000 -5.011641e-017 -0.000000e+000
    outer loop
      vertex   2.464899e+000 -2.386895e+001 1.000000e+001
      vertex   2.464899e+000 -2.386895e+001 0.000000e+000
      vertex   2.464899e+000 -3.273011e+001 1.000000e+001
    endloop
  endfacet
  facet normal -1.000000e+000 -5.011641e-017 0.000000e+000
    outer loop
      vertex   2.464899e+000 -3.273011e+001 1.000000e+001
      vertex   2.464899e+000 -2.386895e+001 0.000000e+000
      vertex   2.464899e+000 -3.273011e+001 0.000000e+000
    endloop
  endfacet
  facet normal -8.305440e-001 5.569530e-001 0.000000e+000
    outer loop
      vertex   1.847114e+001 0.000000e+000 1.000000e+001
      vertex   1.847114e+001 0.000000e+000 0.000000e+000
      vertex   2.464899e+000 -2.386895e+001 1.000000e+001
    endloop
  endfacet
  facet normal -8.305440e-001 5.569530e-001 0.000000e+000
    outer loop
      vertex   2.464899e+000 -2.386895e+001 1.000000e+001
      vertex   1.847114e+001 0.000000e+000 0.000000e+000
      vertex   2.464899e+000 -2.386895e+001 0.000000e+000
    endloop
  endfacet
  facet normal 0.000000e+000 1.000000e+000 0.000000e+000
    outer loop
      vertex   2.995320e+001 0.000000e+000 1.000000e+001
      vertex   2.995320e+001 0.000000e+000 0.000000e+000
      vertex   1.847114e+001 0.000000e+000 1.000000e+001
    endloop
  endfacet
  facet normal 0.000000e+000 1.000000e+000 0.000000e+000
    outer loop
      vertex   1.847114e+001 0.000000e+000 1.000000e+001
      vertex   2.995320e+001 0.000000e+000 0.000000e+000
      vertex   1.847114e+001 0.000000e+000 0.000000e+000
    endloop
  endfacet
  facet normal 0.000000e+000 -0.000000e+000 1.000000e+000
    outer loop
      vertex   2.018721e+001 -2.524181e+001 1.000000e+001
      vertex   2.995320e+001 -2.524181e+001 1.000000e+001
      vertex   2.018721e+001 -8.486739e+000 1.000000e+001
    endloop
  endfacet
  facet normal -0.000000e+000 0.000000e+000 1.000000e+000
    outer loop
      vertex   2.018721e+001 -2.524181e+001 1.000000e+001
      vertex   2.995320e+001 -3.273011e+001 1.000000e+001
      vertex   2.995320e+001 -2.524181e+001 1.000000e+001
    endloop
  endfacet
  facet normal -0.000000e+000 0.000000e+000 1.000000e+000
    outer loop
      vertex   2.018721e+001 -2.524181e+001 1.000000e+001
      vertex   2.018721e+001 -3.273011e+001 1.000000e+001
      vertex   2.995320e+001 -3.273011e+001 1.000000e+001
    endloop
  endfacet
  facet normal 0.000000e+000 0.000000e+000 1.000000e+000
    outer loop
      vertex   2.018721e+001 -2.524181e+001 1.000000e+001
      vertex   8.892356e+000 -2.524181e+001 1.000000e+001
      vertex   2.018721e+001 -3.273011e+001 1.000000e+001
    endloop
  endfacet
  facet normal 0.000000e+000 0.000000e+000 1.000000e+000
    outer loop
      vertex   2.018721e+001 -3.273011e+001 1.000000e+001
      vertex   8.892356e+000 -2.524181e+001 1.000000e+001
      vertex   2.464899e+000 -3.273011e+001 1.000000e+001
    endloop
  endfacet
  facet normal 0.000000e+000 -0.000000e+000 1.000000e+000
    outer loop
      vertex   2.464899e+000 -3.273011e+001 1.000000e+001
      vertex   8.892356e+000 -2.524181e+001 1.000000e+001
      vertex   2.464899e+000 -2.386895e+001 1.000000e+001
    endloop
  endfacet
  facet normal -0.000000e+000 0.000000e+000 1.000000e+000
    outer loop
      vertex   2.464899e+000 -2.386895e+001 1.000000e+001
      vertex   8.892356e+000 -2.524181e+001 1.000000e+001
      vertex   2.018721e+001 -8.486739e+000 1.000000e+001
    endloop
  endfacet
  facet normal -0.000000e+000 0.000000e+000 1.000000e+000
    outer loop
      vertex   1.847114e+001 0.000000e+000 1.000000e+001
      vertex   2.018721e+001 -8.486739e+000 1.000000e+001
      vertex   2.995320e+001 0.000000e+000 1.000000e+001
    endloop
  endfacet
  facet normal -0.000000e+000 0.000000e+000 1.000000e+000
    outer loop
      vertex   1.847114e+001 0.000000e+000 1.000000e+001
      vertex   2.464899e+000 -2.386895e+001 1.000000e+001
      vertex   2.018721e+001 -8.486739e+000 1.000000e+001
    endloop
  endfacet
  facet normal 0.000000e+000 -0.000000e+000 1.000000e+000
    outer loop
      vertex   2.995320e+001 -2.524181e+001 1.000000e+001
      vertex   2.995320e+001 0.000000e+000 1.000000e+001
      vertex   2.018721e+001 -8.486739e+000 1.000000e+001
    endloop
  endfacet
  facet normal 0.000000e+000 -0.000000e+000 1.000000e+000
    outer loop
      vertex   2.018721e+001 -4.000000e+001 1.000000e+001
      vertex   2.995320e+001 -4.000000e+001 1.000000e+001
      vertex   2.018721e+001 -3.273011e+001 1.000000e+001
    endloop
  endfacet
  facet normal -0.000000e+000 0.000000e+000 1.000000e+000
    outer loop
      vertex   2.018721e+001 -3.273011e+001 1.000000e+001
      vertex   2.995320e+001 -4.000000e+001 1.000000e+001
      vertex   2.995320e+001 -3.273011e+001 1.000000e+001
    endloop
  endfacet
  facet normal 0.000000e+000 -0.000000e+000 1.000000e+000
    outer loop
      vertex   2.995320e+001 -3.273011e+001 1.000000e+001
      vertex   3.566303e+001 -3.273011e+001 1.000000e+001
      vertex   2.995320e+001 -2.524181e+001 1.000000e+001
    endloop
  endfacet
  facet normal -0.000000e+000 0.000000e+000 1.000000e+000
    outer loop
      vertex   2.995320e+001 -2.524181e+001 1.000000e+001
      vertex   3.566303e+001 -3.273011e+001 1.000000e+001
      vertex   3.566303e+001 -2.524181e+001 1.000000e+001
    endloop
  endfacet
  facet normal -0.000000e+000 -0.000000e+000 -1.000000e+000
    outer loop
      vertex   2.018721e+001 -8.486739e+000 0.000000e+000
      vertex   2.995320e+001 -2.524181e+001 0.000000e+000
      vertex   2.018721e+001 -2.524181e+001 0.000000e+000
    endloop
  endfacet
  facet normal 0.000000e+000 0.000000e+000 -1.000000e+000
    outer loop
      vertex   2.018721e+001 -8.486739e+000 0.000000e+000
      vertex   2.995320e+001 0.000000e+000 0.000000e+000
      vertex   2.995320e+001 -2.524181e+001 0.000000e+000
    endloop
  endfacet
  facet normal 0.000000e+000 0.000000e+000 -1.000000e+000
    outer loop
      vertex   2.018721e+001 -8.486739e+000 0.000000e+000
      vertex   1.847114e+001 0.000000e+000 0.000000e+000
      vertex   2.995320e+001 0.000000e+000 0.000000e+000
    endloop
  endfacet
  facet normal -0.000000e+000 0.000000e+000 -1.000000e+000
    outer loop
      vertex   2.018721e+001 -8.486739e+000 0.000000e+000
      vertex   2.464899e+000 -2.386895e+001 0.000000e+000
      vertex   1.847114e+001 0.000000e+000 0.000000e+000
    endloop
  endfacet
  facet normal -0.000000e+000 0.000000e+000 -1.000000e+000
    outer loop
      vertex   2.018721e+001 -8.486739e+000 0.000000e+000
      vertex   8.892356e+000 -2.524181e+001 0.000000e+000
      vertex   2.464899e+000 -2.386895e+001 0.000000e+000
    endloop
  endfacet
  facet normal 0.000000e+000 -0.000000e+000 -1.000000e+000
    outer loop
      vertex   2.464899e+000 -2.386895e+001 0.000000e+000
      vertex   8.892356e+000 -2.524181e+001 0.000000e+000
      vertex   2.464899e+000 -3.273011e+001 0.000000e+000
    endloop
  endfacet
  facet normal 0.000000e+000 0.000000e+000 -1.000000e+000
    outer loop
      vertex   2.464899e+000 -3.273011e+001 0.000000e+000
      vertex   8.892356e+000 -2.524181e+001 0.000000e+000
      vertex   2.018721e+001 -3.273011e+001 0.000000e+000
    endloop
  endfacet
  facet normal 0.000000e+000 0.000000e+000 -1.000000e+000
    outer loop
      vertex   2.018721e+001 -3.273011e+001 0.000000e+000
      vertex   8.892356e+000 -2.524181e+001 0.000000e+000
      vertex   2.018721e+001 -2.524181e+001 0.000000e+000
    endloop
  endfacet
  facet normal -0.000000e+000 0.000000e+000 -1.000000e+000
    outer loop
      vertex   2.995320e+001 -2.524181e+001 0.000000e+000
      vertex   2.018721e+001 -3.273011e+001 0.000000e+000
      vertex   2.018721e+001 -2.524181e+001 0.000000e+000
    endloop
  endfacet
  facet normal -0.000000e+000 -0.000000e+000 -1.000000e+000
    outer loop
      vertex   2.995320e+001 -2.524181e+001 0.000000e+000
      vertex   2.995320e+001 -3.273011e+001 0.000000e+000
      vertex   2.018721e+001 -3.273011e+001 0.000000e+000
    endloop
  endfacet
  facet normal 0.000000e+000 -0.000000e+000 -1.000000e+000
    outer loop
      vertex   2.995320e+001 -2.524181e+001 0.000000e+000
      vertex   3.566303e+001 -2.524181e+001 0.000000e+000
      vertex   2.995320e+001 -3.273011e+001 0.000000e+000
    endloop
  endfacet
  facet normal 0.000000e+000 0.000000e+000 -1.000000e+000
    outer loop
      vertex   2.995320e+001 -3.273011e+001 0.000000e+000
      vertex   3.566303e+001 -2.524181e+001 0.000000e+000
      vertex   3.566303e+001 -3.273011e+001 0.000000e+000
    endloop
  endfacet
  facet normal 0.000000e+000 0.000000e+000 -1.000000e+000
    outer loop
      vertex   2.995320e+001 -4.000000e+001 0.000000e+000
      vertex   2.018721e+001 -4.000000e+001 0.000000e+000
      vertex   2.995320e+001 -3.273011e+001 0.000000e+000
    endloop
  endfacet
  facet normal -0.000000e+000 0.000000e+000 -1.000000e+000
    outer loop
      vertex   2.995320e+001 -3.273011e+001 0.000000e+000
      vertex   2.018721e+001 -4.000000e+001 0.000000e+000
      vertex   2.018721e+001 -3.273011e+001 0.000000e+000
    endloop
  endfacet
endsolid