solid ascii
  facet normal 1.000000e+000 -0.000000e+000 0.000000e+000
    outer loop
      vertex   3.285491e+001 -7.800312e+000 9.000000e+000
      vertex   3.285491e+001 -7.800312e+000 0.000000e+000
      vertex   3.285491e+001 0.000000e+000 9.000000e+000
    endloop
  endfacet
  facet normal 1.000000e+000 -0.000000e+000 0.000000e+000
    outer loop
      vertex   3.285491e+001 0.000000e+000 9.000000e+000
      vertex   3.285491e+001 -7.800312e+000 0.000000e+000
      vertex   3.285491e+001 0.000000e+000 0.000000e+000
    endloop
  endfacet
  facet normal 0.000000e+000 -1.000000e+000 0.000000e+000
    outer loop
      vertex   1.535101e+001 -7.800312e+000 9.000000e+000
      vertex   1.535101e+001 -7.800312e+000 0.000000e+000
      vertex   3.285491e+001 -7.800312e+000 9.000000e+000
    endloop
  endfacet
  facet normal 0.000000e+000 -1.000000e+000 -0.000000e+000
    outer loop
      vertex   3.285491e+001 -7.800312e+000 9.000000e+000
      vertex   1.535101e+001 -7.800312e+000 0.000000e+000
      vertex   3.285491e+001 -7.800312e+000 0.000000e+000
    endloop
  endfacet
  facet normal 1.000000e+000 -0.000000e+000 0.000000e+000
    outer loop
      vertex   1.535101e+001 -1.525741e+001 9.000000e+000
      vertex   1.535101e+001 -1.525741e+001 0.000000e+000
      vertex   1.535101e+001 -7.800312e+000 9.000000e+000
    endloop
  endfacet
  facet normal 1.000000e+000 -0.000000e+000 0.000000e+000
    outer loop
      vertex   1.535101e+001 -7.800312e+000 9.000000e+000
      vertex   1.535101e+001 -1.525741e+001 0.000000e+000
      vertex   1.535101e+001 -7.800312e+000 0.000000e+000
    endloop
  endfacet
  facet normal 0.000000e+000 1.000000e+000 0.000000e+000
    outer loop
      vertex   3.179407e+001 -1.525741e+001 9.000000e+000
      vertex   3.179407e+001 -1.525741e+001 0.000000e+000
      vertex   1.535101e+001 -1.525741e+001 9.000000e+000
    endloop
  endfacet
  facet normal 0.000000e+000 1.000000e+000 0.000000e+000
    outer loop
      vertex   1.535101e+001 -1.525741e+001 9.000000e+000
      vertex   3.179407e+001 -1.525741e+001 0.000000e+000
      vertex   1.535101e+001 -1.525741e+001 0.000000e+000
    endloop
  endfacet
  facet normal 1.000000e+000 -0.000000e+000 0.000000e+000
    outer loop
      vertex   3.179407e+001 -2.305772e+001 9.000000e+000
      vertex   3.179407e+001 -2.305772e+001 0.000000e+000
      vertex   3.179407e+001 -1.525741e+001 9.000000e+000
    endloop
  endfacet
  facet normal 1.000000e+000 -0.000000e+000 0.000000e+000
    outer loop
      vertex   3.179407e+001 -1.525741e+001 9.000000e+000
      vertex   3.179407e+001 -2.305772e+001 0.000000e+000
      vertex   3.179407e+001 -1.525741e+001 0.000000e+000
    endloop
  endfacet
  facet normal 0.000000e+000 -1.000000e+000 0.000000e+000
    outer loop
      vertex   1.535101e+001 -2.305772e+001 9.000000e+000
      vertex   1.535101e+001 -2.305772e+001 0.000000e+000
      vertex   3.179407e+001 -2.305772e+001 9.000000e+000
    endloop
  endfacet
  facet normal 0.000000e+000 -1.000000e+000 -0.000000e+000
    outer loop
      vertex   3.179407e+001 -2.305772e+001 9.000000e+000
      vertex   1.535101e+001 -2.305772e+001 0.000000e+000
      vertex   3.179407e+001 -2.305772e+001 0.000000e+000
    endloop
  endfacet
  facet normal 1.000000e+000 -0.000000e+000 0.000000e+000
    outer loop
      vertex   1.535101e+001 -4.000000e+001 9.000000e+000
      vertex   1.535101e+001 -4.000000e+001 0.000000e+000
      vertex   1.535101e+001 -2.305772e+001 9.000000e+000
    endloop
  endfacet
  facet normal 1.000000e+000 -0.000000e+000 0.000000e+000
    outer loop
      vertex   1.535101e+001 -2.305772e+001 9.000000e+000
      vertex   1.535101e+001 -4.000000e+001 0.000000e+000
      vertex   1.535101e+001 -2.305772e+001 0.000000e+000
    endloop
  endfacet
  facet normal 0.000000e+000 -1.000000e+000 0.000000e+000
    outer loop
      vertex   5.023401e+000 -4.000000e+001 9.000000e+000
      vertex   5.023401e+000 -4.000000e+001 0.000000e+000
      vertex   1.535101e+001 -4.000000e+001 9.000000e+000
    endloop
  endfacet
  facet normal 0.000000e+000 -1.000000e+000 -0.000000e+000
    outer loop
      vertex   1.535101e+001 -4.000000e+001 9.000000e+000
      vertex   5.023401e+000 -4.000000e+001 0.000000e+000
      vertex   1.535101e+001 -4.000000e+001 0.000000e+000
    endloop
  endfacet
  facet normal -1.000000e+000 2.220446e-017 0.000000e+000
    outer loop
      vertex   5.023401e+000 0.000000e+000 9.000000e+000
      vertex   5.023401e+000 0.000000e+000 0.000000e+000
      vertex   5.023401e+000 -4.000000e+001 9.000000e+000
    endloop
  endfacet
  facet normal -1.000000e+000 2.220446e-017 0.000000e+000
    outer loop
      vertex   5.023401e+000 -4.000000e+001 9.000000e+000
      vertex   5.023401e+000 0.000000e+000 0.000000e+000
      vertex   5.023401e+000 -4.000000e+001 0.000000e+000
    endloop
  endfacet
  facet normal 0.000000e+000 1.000000e+000 0.000000e+000
    outer loop
      vertex   3.285491e+001 0.000000e+000 9.000000e+000
      vertex   3.285491e+001 0.000000e+000 0.000000e+000
      vertex   5.023401e+000 0.000000e+000 9.000000e+000
    endloop
  endfacet
  facet normal 0.000000e+000 1.000000e+000 0.000000e+000
    outer loop
      vertex   5.023401e+000 0.000000e+000 9.000000e+000
      vertex   3.285491e+001 0.000000e+000 0.000000e+000
      vertex   5.023401e+000 0.000000e+000 0.000000e+000
    endloop
  endfacet
  facet normal 0.000000e+000 -0.000000e+000 1.000000e+000
    outer loop
      vertex   3.285491e+001 -7.800312e+000 9.000000e+000
      vertex   3.285491e+001 0.000000e+000 9.000000e+000
      vertex   1.535101e+001 -7.800312e+000 9.000000e+000
    endloop
  endfacet
  facet normal 0.000000e+000 -0.000000e+000 1.000000e+000
    outer loop
      vertex   1.535101e+001 -7.800312e+000 9.000000e+000
      vertex   3.285491e+001 0.000000e+000 9.000000e+000
      vertex   5.023401e+000 0.000000e+000 9.000000e+000
    endloop
  endfacet
  facet normal 0.000000e+000 0.000000e+000 1.000000e+000
    outer loop
      vertex   1.535101e+001 -1.525741e+001 9.000000e+000
      vertex   5.023401e+000 0.000000e+000 9.000000e+000
      vertex   1.535101e+001 -2.305772e+001 9.000000e+000
    endloop
  endfacet
  facet normal 0.000000e+000 0.000000e+000 1.000000e+000
    outer loop
      vertex   3.179407e+001 -2.305772e+001 9.000000e+000
      vertex   1.535101e+001 -1.525741e+001 9.000000e+000
      vertex   1.535101e+001 -2.305772e+001 9.000000e+000
    endloop
  endfacet
  facet normal 0.000000e+000 -0.000000e+000 1.000000e+000
    outer loop
      vertex   3.179407e+001 -2.305772e+001 9.000000e+000
      vertex   3.179407e+001 -1.525741e+001 9.000000e+000
      vertex   1.535101e+001 -1.525741e+001 9.000000e+000
    endloop
  endfacet
  facet normal -0.000000e+000 0.000000e+000 1.000000e+000
    outer loop
      vertex   5.023401e+000 0.000000e+000 9.000000e+000
      vertex   5.023401e+000 -4.000000e+001 9.000000e+000
      vertex   1.535101e+001 -2.305772e+001 9.000000e+000
    endloop
  endfacet
  facet normal -0.000000e+000 0.000000e+000 1.000000e+000
    outer loop
      vertex   1.535101e+001 -2.305772e+001 9.000000e+000
      vertex   5.023401e+000 -4.000000e+001 9.000000e+000
      vertex   1.535101e+001 -4.000000e+001 9.000000e+000
    endloop
  endfacet
  facet normal 0.000000e+000 -0.000000e+000 1.000000e+000
    outer loop
      vertex   1.535101e+001 -1.525741e+001 9.000000e+000
      vertex   1.535101e+001 -7.800312e+000 9.000000e+000
      vertex   5.023401e+000 0.000000e+000 9.000000e+000
    endloop
  endfacet
  facet normal -0.000000e+000 0.000000e+000 -1.000000e+000
    outer loop
      vertex   3.285491e+001 0.000000e+000 0.000000e+000
      vertex   1.535101e+001 -7.800312e+000 0.000000e+000
      vertex   5.023401e+000 0.000000e+000 0.000000e+000
    endloop
  endfacet
  facet normal -0.000000e+000 -0.000000e+000 -1.000000e+000
    outer loop
      vertex   3.285491e+001 0.000000e+000 0.000000e+000
      vertex   3.285491e+001 -7.800312e+000 0.000000e+000
      vertex   1.535101e+001 -7.800312e+000 0.000000e+000
    endloop
  endfacet
  facet normal -0.000000e+000 -0.000000e+000 -1.000000e+000
    outer loop
      vertex   1.535101e+001 -7.800312e+000 0.000000e+000
      vertex   1.535101e+001 -1.525741e+001 0.000000e+000
      vertex   5.023401e+000 0.000000e+000 0.000000e+000
    endloop
  endfacet
  facet normal 0.000000e+000 0.000000e+000 -1.000000e+000
    outer loop
      vertex   5.023401e+000 0.000000e+000 0.000000e+000
      vertex   1.535101e+001 -1.525741e+001 0.000000e+000
      vertex   1.535101e+001 -2.305772e+001 0.000000e+000
    endloop
  endfacet
  facet normal 0.000000e+000 0.000000e+000 -1.000000e+000
    outer loop
      vertex   5.023401e+000 -4.000000e+001 0.000000e+000
      vertex   1.535101e+001 -2.305772e+001 0.000000e+000
      vertex   1.535101e+001 -4.000000e+001 0.000000e+000
    endloop
  endfacet
  facet normal 0.000000e+000 0.000000e+000 -1.000000e+000
    outer loop
      vertex   5.023401e+000 -4.000000e+001 0.000000e+000
      vertex   5.023401e+000 0.000000e+000 0.000000e+000
      vertex   1.535101e+001 -2.305772e+001 0.000000e+000
    endloop
  endfacet
  facet normal 0.000000e+000 -0.000000e+000 -1.000000e+000
    outer loop
      vertex   1.535101e+001 -1.525741e+001 0.000000e+000
      vertex   3.179407e+001 -1.525741e+001 0.000000e+000
      vertex   1.535101e+001 -2.305772e+001 0.000000e+000
    endloop
  endfacet
  facet normal 0.000000e+000 0.000000e+000 -1.000000e+000
    outer loop
      vertex   1.535101e+001 -2.305772e+001 0.000000e+000
      vertex   3.179407e+001 -1.525741e+001 0.000000e+000
      vertex   3.179407e+001 -2.305772e+001 0.000000e+000
    endloop
  endfacet
endsolid