solid ascii
  facet normal 9.201135e-001 3.916518e-001 0.000000e+000
    outer loop
      vertex   2.726989e+001 -2.140406e+001 1.000000e+001
      vertex   2.726989e+001 -2.140406e+001 0.000000e+000
      vertex   1.815913e+001 0.000000e+000 1.000000e+001
    endloop
  endfacet
  facet normal 9.201135e-001 3.916518e-001 0.000000e+000
    outer loop
      vertex   1.815913e+001 0.000000e+000 1.000000e+001
      vertex   2.726989e+001 -2.140406e+001 0.000000e+000
      vertex   1.815913e+001 0.000000e+000 0.000000e+000
    endloop
  endfacet
  facet normal -9.191450e-001 3.939193e-001 0.000000e+000
    outer loop
      vertex   3.644306e+001 0.000000e+000 1.000000e+001
      vertex   3.644306e+001 0.000000e+000 0.000000e+000
      vertex   2.726989e+001 -2.140406e+001 1.000000e+001
    endloop
  endfacet
  facet normal -9.191450e-001 3.939193e-001 0.000000e+000
    outer loop
      vertex   2.726989e+001 -2.140406e+001 1.000000e+001
      vertex   3.644306e+001 0.000000e+000 0.000000e+000
      vertex   2.726989e+001 -2.140406e+001 0.000000e+000
    endloop
  endfacet
  facet normal 0.000000e+000 1.000000e+000 0.000000e+000
    outer loop
      vertex   4.954758e+001 0.000000e+000 1.000000e+001
      vertex   4.954758e+001 0.000000e+000 0.000000e+000
      vertex   3.644306e+001 0.000000e+000 1.000000e+001
    endloop
  endfacet
  facet normal 0.000000e+000 1.000000e+000 0.000000e+000
    outer loop
      vertex   3.644306e+001 0.000000e+000 1.000000e+001
      vertex   4.954758e+001 0.000000e+000 0.000000e+000
      vertex   3.644306e+001 0.000000e+000 0.000000e+000
    endloop
  endfacet
  facet normal 1.000000e+000 -0.000000e+000 0.000000e+000
    outer loop
      vertex   4.954758e+001 -4.000000e+001 1.000000e+001
      vertex   4.954758e+001 -4.000000e+001 0.000000e+000
      vertex   4.954758e+001 0.000000e+000 1.000000e+001
    endloop
  endfacet
  facet normal 1.000000e+000 -0.000000e+000 0.000000e+000
    outer loop
      vertex   4.954758e+001 0.000000e+000 1.000000e+001
      vertex   4.954758e+001 -4.000000e+001 0.000000e+000
      vertex   4.954758e+001 0.000000e+000 0.000000e+000
    endloop
  endfacet
  facet normal 0.000000e+000 -1.000000e+000 0.000000e+000
    outer loop
      vertex   3.978159e+001 -4.000000e+001 1.000000e+001
      vertex   3.978159e+001 -4.000000e+001 0.000000e+000
      vertex   4.954758e+001 -4.000000e+001 1.000000e+001
    endloop
  endfacet
  facet normal 0.000000e+000 -1.000000e+000 -0.000000e+000
    outer loop
      vertex   4.954758e+001 -4.000000e+001 1.000000e+001
      vertex   3.978159e+001 -4.000000e+001 0.000000e+000
      vertex   4.954758e+001 -4.000000e+001 0.000000e+000
    endloop
  endfacet
  facet normal -1.000000e+000 -0.000000e+000 -0.000000e+000
    outer loop
      vertex   3.978159e+001 -1.073323e+001 1.000000e+001
      vertex   3.978159e+001 -1.073323e+001 0.000000e+000
      vertex   3.978159e+001 -4.000000e+001 1.000000e+001
    endloop
  endfacet
  facet normal -1.000000e+000 -0.000000e+000 -0.000000e+000
    outer loop
      vertex   3.978159e+001 -4.000000e+001 1.000000e+001
      vertex   3.978159e+001 -1.073323e+001 0.000000e+000
      vertex   3.978159e+001 -4.000000e+001 0.000000e+000
    endloop
  endfacet
  facet normal 9.196949e-001 -3.926338e-001 0.000000e+000
    outer loop
      vertex   3.057722e+001 -3.229329e+001 1.000000e+001
      vertex   3.057722e+001 -3.229329e+001 0.000000e+000
      vertex   3.978159e+001 -1.073323e+001 1.000000e+001
    endloop
  endfacet
  facet normal 9.196949e-001 -3.926338e-001 0.000000e+000
    outer loop
      vertex   3.978159e+001 -1.073323e+001 1.000000e+001
      vertex   3.057722e+001 -3.229329e+001 0.000000e+000
      vertex   3.978159e+001 -1.073323e+001 0.000000e+000
    endloop
  endfacet
  facet normal 0.000000e+000 -1.000000e+000 0.000000e+000
    outer loop
      vertex   2.402496e+001 -3.229329e+001 1.000000e+001
      vertex   2.402496e+001 -3.229329e+001 0.000000e+000
      vertex   3.057722e+001 -3.229329e+001 1.000000e+001
    endloop
  endfacet
  facet normal 0.000000e+000 -1.000000e+000 -0.000000e+000
    outer loop
      vertex   3.057722e+001 -3.229329e+001 1.000000e+001
      vertex   2.402496e+001 -3.229329e+001 0.000000e+000
      vertex   3.057722e+001 -3.229329e+001 0.000000e+000
    endloop
  endfacet
  facet normal -9.196949e-001 -3.926338e-001 -0.000000e+000
    outer loop
      vertex   1.482059e+001 -1.073323e+001 1.000000e+001
      vertex   1.482059e+001 -1.073323e+001 0.000000e+000
      vertex   2.402496e+001 -3.229329e+001 1.000000e+001
    endloop
  endfacet
  facet normal -9.196949e-001 -3.926338e-001 0.000000e+000
    outer loop
      vertex   2.402496e+001 -3.229329e+001 1.000000e+001
      vertex   1.482059e+001 -1.073323e+001 0.000000e+000
      vertex   2.402496e+001 -3.229329e+001 0.000000e+000
    endloop
  endfacet
  facet normal 1.000000e+000 -0.000000e+000 0.000000e+000
    outer loop
      vertex   1.482059e+001 -4.000000e+001 1.000000e+001
      vertex   1.482059e+001 -4.000000e+001 0.000000e+000
      vertex   1.482059e+001 -1.073323e+001 1.000000e+001
    endloop
  endfacet
  facet normal 1.000000e+000 -0.000000e+000 0.000000e+000
    outer loop
      vertex   1.482059e+001 -1.073323e+001 1.000000e+001
      vertex   1.482059e+001 -4.000000e+001 0.000000e+000
      vertex   1.482059e+001 -1.073323e+001 0.000000e+000
    endloop
  endfacet
  facet normal 0.000000e+000 -1.000000e+000 0.000000e+000
    outer loop
      vertex   5.023401e+000 -4.000000e+001 1.000000e+001
      vertex   5.023401e+000 -4.000000e+001 0.000000e+000
      vertex   1.482059e+001 -4.000000e+001 1.000000e+001
    endloop
  endfacet
  facet normal 0.000000e+000 -1.000000e+000 -0.000000e+000
    outer loop
      vertex   1.482059e+001 -4.000000e+001 1.000000e+001
      vertex   5.023401e+000 -4.000000e+001 0.000000e+000
      vertex   1.482059e+001 -4.000000e+001 0.000000e+000
    endloop
  endfacet
  facet normal -1.000000e+000 -0.000000e+000 -0.000000e+000
    outer loop
      vertex   5.023401e+000 0.000000e+000 1.000000e+001
      vertex   5.023401e+000 0.000000e+000 0.000000e+000
      vertex   5.023401e+000 -4.000000e+001 1.000000e+001
    endloop
  endfacet
  facet normal -1.000000e+000 -0.000000e+000 -0.000000e+000
    outer loop
      vertex   5.023401e+000 -4.000000e+001 1.000000e+001
      vertex   5.023401e+000 0.000000e+000 0.000000e+000
      vertex   5.023401e+000 -4.000000e+001 0.000000e+000
    endloop
  endfacet
  facet normal 0.000000e+000 1.000000e+000 0.000000e+000
    outer loop
      vertex   1.815913e+001 0.000000e+000 1.000000e+001
      vertex   1.815913e+001 0.000000e+000 0.000000e+000
      vertex   5.023401e+000 0.000000e+000 1.000000e+001
    endloop
  endfacet
  facet normal 0.000000e+000 1.000000e+000 0.000000e+000
    outer loop
      vertex   5.023401e+000 0.000000e+000 1.000000e+001
      vertex   1.815913e+001 0.000000e+000 0.000000e+000
      vertex   5.023401e+000 0.000000e+000 0.000000e+000
    endloop
  endfacet
  facet normal 0.000000e+000 0.000000e+000 1.000000e+000
    outer loop
      vertex   1.815913e+001 0.000000e+000 1.000000e+001
      vertex   1.482059e+001 -1.073323e+001 1.000000e+001
      vertex   2.726989e+001 -2.140406e+001 1.000000e+001
    endloop
  endfacet
  facet normal 0.000000e+000 0.000000e+000 1.000000e+000
    outer loop
      vertex   1.815913e+001 0.000000e+000 1.000000e+001
      vertex   5.023401e+000 0.000000e+000 1.000000e+001
      vertex   1.482059e+001 -1.073323e+001 1.000000e+001
    endloop
  endfacet
  facet normal 0.000000e+000 0.000000e+000 1.000000e+000
    outer loop
      vertex   1.482059e+001 -1.073323e+001 1.000000e+001
      vertex   5.023401e+000 0.000000e+000 1.000000e+001
      vertex   5.023401e+000 -4.000000e+001 1.000000e+001
    endloop
  endfacet
  facet normal 0.000000e+000 -0.000000e+000 1.000000e+000
    outer loop
      vertex   1.482059e+001 -4.000000e+001 1.000000e+001
      vertex   1.482059e+001 -1.073323e+001 1.000000e+001
      vertex   5.023401e+000 -4.000000e+001 1.000000e+001
    endloop
  endfacet
  facet normal -0.000000e+000 0.000000e+000 1.000000e+000
    outer loop
      vertex   1.482059e+001 -1.073323e+001 1.000000e+001
      vertex   2.402496e+001 -3.229329e+001 1.000000e+001
      vertex   2.726989e+001 -2.140406e+001 1.000000e+001
    endloop
  endfacet
  facet normal -0.000000e+000 0.000000e+000 1.000000e+000
    outer loop
      vertex   2.726989e+001 -2.140406e+001 1.000000e+001
      vertex   2.402496e+001 -3.229329e+001 1.000000e+001
      vertex   3.057722e+001 -3.229329e+001 1.000000e+001
    endloop
  endfacet
  facet normal 0.000000e+000 0.000000e+000 1.000000e+000
    outer loop
      vertex   3.978159e+001 -1.073323e+001 1.000000e+001
      vertex   2.726989e+001 -2.140406e+001 1.000000e+001
      vertex   3.057722e+001 -3.229329e+001 1.000000e+001
    endloop
  endfacet
  facet normal 0.000000e+000 0.000000e+000 1.000000e+000
    outer loop
      vertex   3.978159e+001 -1.073323e+001 1.000000e+001
      vertex   3.644306e+001 0.000000e+000 1.000000e+001
      vertex   2.726989e+001 -2.140406e+001 1.000000e+001
    endloop
  endfacet
  facet normal 0.000000e+000 -0.000000e+000 1.000000e+000
    outer loop
      vertex   3.978159e+001 -1.073323e+001 1.000000e+001
      vertex   4.954758e+001 0.000000e+000 1.000000e+001
      vertex   3.644306e+001 0.000000e+000 1.000000e+001
    endloop
  endfacet
  facet normal -0.000000e+000 0.000000e+000 1.000000e+000
    outer loop
      vertex   3.978159e+001 -1.073323e+001 1.000000e+001
      vertex   4.954758e+001 -4.000000e+001 1.000000e+001
      vertex   4.954758e+001 0.000000e+000 1.000000e+001
    endloop
  endfacet
  facet normal -0.000000e+000 0.000000e+000 1.000000e+000
    outer loop
      vertex   3.978159e+001 -1.073323e+001 1.000000e+001
      vertex   3.978159e+001 -4.000000e+001 1.000000e+001
      vertex   4.954758e+001 -4.000000e+001 1.000000e+001
    endloop
  endfacet
  facet normal 0.000000e+000 0.000000e+000 -1.000000e+000
    outer loop
      vertex   5.023401e+000 -4.000000e+001 0.000000e+000
      vertex   5.023401e+000 0.000000e+000 0.000000e+000
      vertex   1.482059e+001 -1.073323e+001 0.000000e+000
    endloop
  endfacet
  facet normal 0.000000e+000 0.000000e+000 -1.000000e+000
    outer loop
      vertex   1.482059e+001 -4.000000e+001 0.000000e+000
      vertex   5.023401e+000 -4.000000e+001 0.000000e+000
      vertex   1.482059e+001 -1.073323e+001 0.000000e+000
    endloop
  endfacet
  facet normal 0.000000e+000 -0.000000e+000 -1.000000e+000
    outer loop
      vertex   5.023401e+000 0.000000e+000 0.000000e+000
      vertex   1.815913e+001 0.000000e+000 0.000000e+000
      vertex   1.482059e+001 -1.073323e+001 0.000000e+000
    endloop
  endfacet
  facet normal 0.000000e+000 0.000000e+000 -1.000000e+000
    outer loop
      vertex   1.482059e+001 -1.073323e+001 0.000000e+000
      vertex   1.815913e+001 0.000000e+000 0.000000e+000
      vertex   2.726989e+001 -2.140406e+001 0.000000e+000
    endloop
  endfacet
  facet normal 0.000000e+000 0.000000e+000 -1.000000e+000
    outer loop
      vertex   2.402496e+001 -3.229329e+001 0.000000e+000
      vertex   2.726989e+001 -2.140406e+001 0.000000e+000
      vertex   3.057722e+001 -3.229329e+001 0.000000e+000
    endloop
  endfacet
  facet normal 0.000000e+000 0.000000e+000 -1.000000e+000
    outer loop
      vertex   2.402496e+001 -3.229329e+001 0.000000e+000
      vertex   1.482059e+001 -1.073323e+001 0.000000e+000
      vertex   2.726989e+001 -2.140406e+001 0.000000e+000
    endloop
  endfacet
  facet normal 0.000000e+000 0.000000e+000 -1.000000e+000
    outer loop
      vertex   3.057722e+001 -3.229329e+001 0.000000e+000
      vertex   2.726989e+001 -2.140406e+001 0.000000e+000
      vertex   3.978159e+001 -1.073323e+001 0.000000e+000
    endloop
  endfacet
  facet normal -0.000000e+000 0.000000e+000 -1.000000e+000
    outer loop
      vertex   3.978159e+001 -1.073323e+001 0.000000e+000
      vertex   2.726989e+001 -2.140406e+001 0.000000e+000
      vertex   3.644306e+001 0.000000e+000 0.000000e+000
    endloop
  endfacet
  facet normal -0.000000e+000 0.000000e+000 -1.000000e+000
    outer loop
      vertex   4.954758e+001 0.000000e+000 0.000000e+000
      vertex   3.978159e+001 -1.073323e+001 0.000000e+000
      vertex   3.644306e+001 0.000000e+000 0.000000e+000
    endloop
  endfacet
  facet normal -0.000000e+000 -0.000000e+000 -1.000000e+000
    outer loop
      vertex   4.954758e+001 0.000000e+000 0.000000e+000
      vertex   4.954758e+001 -4.000000e+001 0.000000e+000
      vertex   3.978159e+001 -1.073323e+001 0.000000e+000
    endloop
  endfacet
  facet normal -0.000000e+000 -0.000000e+000 -1.000000e+000
    outer loop
      vertex   3.978159e+001 -1.073323e+001 0.000000e+000
      vertex   4.954758e+001 -4.000000e+001 0.000000e+000
      vertex   3.978159e+001 -4.000000e+001 0.000000e+000
    endloop
  endfacet
endsolid