solid ascii
  facet normal 9.727838e-001 2.317146e-001 0.000000e+000
    outer loop
      vertex   1.843994e+001 -2.907956e+001 1.000000e+001
      vertex   1.843994e+001 -2.907956e+001 0.000000e+000
      vertex   1.151326e+001 0.000000e+000 1.000000e+001
    endloop
  endfacet
  facet normal 9.727838e-001 2.317146e-001 0.000000e+000
    outer loop
      vertex   1.151326e+001 0.000000e+000 1.000000e+001
      vertex   1.843994e+001 -2.907956e+001 0.000000e+000
      vertex   1.151326e+001 0.000000e+000 0.000000e+000
    endloop
  endfacet
  facet normal -9.734856e-001 2.287482e-001 0.000000e+000
    outer loop
      vertex   2.527301e+001 0.000000e+000 1.000000e+001
      vertex   2.527301e+001 0.000000e+000 0.000000e+000
      vertex   1.843994e+001 -2.907956e+001 1.000000e+001
    endloop
  endfacet
  facet normal -9.734856e-001 2.287482e-001 0.000000e+000
    outer loop
      vertex   1.843994e+001 -2.907956e+001 1.000000e+001
      vertex   2.527301e+001 0.000000e+000 0.000000e+000
      vertex   1.843994e+001 -2.907956e+001 0.000000e+000
    endloop
  endfacet
  facet normal 0.000000e+000 1.000000e+000 0.000000e+000
    outer loop
      vertex   3.522621e+001 0.000000e+000 1.000000e+001
      vertex   3.522621e+001 0.000000e+000 0.000000e+000
      vertex   2.527301e+001 0.000000e+000 1.000000e+001
    endloop
  endfacet
  facet normal 0.000000e+000 1.000000e+000 0.000000e+000
    outer loop
      vertex   2.527301e+001 0.000000e+000 1.000000e+001
      vertex   3.522621e+001 0.000000e+000 0.000000e+000
      vertex   2.527301e+001 0.000000e+000 0.000000e+000
    endloop
  endfacet
  facet normal 9.732526e-001 2.297377e-001 0.000000e+000
    outer loop
      vertex   4.209048e+001 -2.907956e+001 1.000000e+001
      vertex   4.209048e+001 -2.907956e+001 0.000000e+000
      vertex   3.522621e+001 0.000000e+000 1.000000e+001
    endloop
  endfacet
  facet normal 9.732526e-001 2.297377e-001 0.000000e+000
    outer loop
      vertex   3.522621e+001 0.000000e+000 1.000000e+001
      vertex   4.209048e+001 -2.907956e+001 0.000000e+000
      vertex   3.522621e+001 0.000000e+000 0.000000e+000
    endloop
  endfacet
  facet normal -9.727838e-001 2.317146e-001 0.000000e+000
    outer loop
      vertex   4.901716e+001 0.000000e+000 1.000000e+001
      vertex   4.901716e+001 0.000000e+000 0.000000e+000
      vertex   4.209048e+001 -2.907956e+001 1.000000e+001
    endloop
  endfacet
  facet normal -9.727838e-001 2.317146e-001 0.000000e+000
    outer loop
      vertex   4.209048e+001 -2.907956e+001 1.000000e+001
      vertex   4.901716e+001 0.000000e+000 0.000000e+000
      vertex   4.209048e+001 -2.907956e+001 0.000000e+000
    endloop
  endfacet
  facet normal 0.000000e+000 1.000000e+000 0.000000e+000
    outer loop
      vertex   5.881435e+001 0.000000e+000 1.000000e+001
      vertex   5.881435e+001 0.000000e+000 0.000000e+000
      vertex   4.901716e+001 0.000000e+000 1.000000e+001
    endloop
  endfacet
  facet normal 0.000000e+000 1.000000e+000 0.000000e+000
    outer loop
      vertex   4.901716e+001 0.000000e+000 1.000000e+001
      vertex   5.881435e+001 0.000000e+000 0.000000e+000
      vertex   4.901716e+001 0.000000e+000 0.000000e+000
    endloop
  endfacet
  facet normal 9.733574e-001 -2.292932e-001 0.000000e+000
    outer loop
      vertex   4.939158e+001 -4.000000e+001 1.000000e+001
      vertex   4.939158e+001 -4.000000e+001 0.000000e+000
      vertex   5.881435e+001 0.000000e+000 1.000000e+001
    endloop
  endfacet
  facet normal 9.733574e-001 -2.292932e-001 0.000000e+000
    outer loop
      vertex   5.881435e+001 0.000000e+000 1.000000e+001
      vertex   4.939158e+001 -4.000000e+001 0.000000e+000
      vertex   5.881435e+001 0.000000e+000 0.000000e+000
    endloop
  endfacet
  facet normal 0.000000e+000 -1.000000e+000 0.000000e+000
    outer loop
      vertex   3.747270e+001 -4.000000e+001 1.000000e+001
      vertex   3.747270e+001 -4.000000e+001 0.000000e+000
      vertex   4.939158e+001 -4.000000e+001 1.000000e+001
    endloop
  endfacet
  facet normal 0.000000e+000 -1.000000e+000 -0.000000e+000
    outer loop
      vertex   4.939158e+001 -4.000000e+001 1.000000e+001
      vertex   3.747270e+001 -4.000000e+001 0.000000e+000
      vertex   4.939158e+001 -4.000000e+001 0.000000e+000
    endloop
  endfacet
  facet normal -9.728383e-001 -2.314856e-001 -0.000000e+000
    outer loop
      vertex   3.023401e+001 -9.578783e+000 1.000000e+001
      vertex   3.023401e+001 -9.578783e+000 0.000000e+000
      vertex   3.747270e+001 -4.000000e+001 1.000000e+001
    endloop
  endfacet
  facet normal -9.728383e-001 -2.314856e-001 0.000000e+000
    outer loop
      vertex   3.747270e+001 -4.000000e+001 1.000000e+001
      vertex   3.023401e+001 -9.578783e+000 0.000000e+000
      vertex   3.747270e+001 -4.000000e+001 0.000000e+000
    endloop
  endfacet
  facet normal 9.730626e-001 -2.305410e-001 0.000000e+000
    outer loop
      vertex   2.302652e+001 -4.000000e+001 1.000000e+001
      vertex   2.302652e+001 -4.000000e+001 0.000000e+000
      vertex   3.023401e+001 -9.578783e+000 1.000000e+001
    endloop
  endfacet
  facet normal 9.730626e-001 -2.305410e-001 0.000000e+000
    outer loop
      vertex   3.023401e+001 -9.578783e+000 1.000000e+001
      vertex   2.302652e+001 -4.000000e+001 0.000000e+000
      vertex   3.023401e+001 -9.578783e+000 0.000000e+000
    endloop
  endfacet
  facet normal 0.000000e+000 -1.000000e+000 0.000000e+000
    outer loop
      vertex   1.113885e+001 -4.000000e+001 1.000000e+001
      vertex   1.113885e+001 -4.000000e+001 0.000000e+000
      vertex   2.302652e+001 -4.000000e+001 1.000000e+001
    endloop
  endfacet
  facet normal 0.000000e+000 -1.000000e+000 -0.000000e+000
    outer loop
      vertex   2.302652e+001 -4.000000e+001 1.000000e+001
      vertex   1.113885e+001 -4.000000e+001 0.000000e+000
      vertex   2.302652e+001 -4.000000e+001 0.000000e+000
    endloop
  endfacet
  facet normal -9.728469e-001 -2.314495e-001 -0.000000e+000
    outer loop
      vertex   1.622465e+000 0.000000e+000 1.000000e+001
      vertex   1.622465e+000 0.000000e+000 0.000000e+000
      vertex   1.113885e+001 -4.000000e+001 1.000000e+001
    endloop
  endfacet
  facet normal -9.728469e-001 -2.314495e-001 0.000000e+000
    outer loop
      vertex   1.113885e+001 -4.000000e+001 1.000000e+001
      vertex   1.622465e+000 0.000000e+000 0.000000e+000
      vertex   1.113885e+001 -4.000000e+001 0.000000e+000
    endloop
  endfacet
  facet normal 0.000000e+000 1.000000e+000 0.000000e+000
    outer loop
      vertex   1.151326e+001 0.000000e+000 1.000000e+001
      vertex   1.151326e+001 0.000000e+000 0.000000e+000
      vertex   1.622465e+000 0.000000e+000 1.000000e+001
    endloop
  endfacet
  facet normal 0.000000e+000 1.000000e+000 0.000000e+000
    outer loop
      vertex   1.622465e+000 0.000000e+000 1.000000e+001
      vertex   1.151326e+001 0.000000e+000 0.000000e+000
      vertex   1.622465e+000 0.000000e+000 0.000000e+000
    endloop
  endfacet
  facet normal 0.000000e+000 0.000000e+000 1.000000e+000
    outer loop
      vertex   1.151326e+001 0.000000e+000 1.000000e+001
      vertex   1.622465e+000 0.000000e+000 1.000000e+001
      vertex   1.843994e+001 -2.907956e+001 1.000000e+001
    endloop
  endfacet
  facet normal 0.000000e+000 0.000000e+000 1.000000e+000
    outer loop
      vertex   1.843994e+001 -2.907956e+001 1.000000e+001
      vertex   1.622465e+000 0.000000e+000 1.000000e+001
      vertex   1.113885e+001 -4.000000e+001 1.000000e+001
    endloop
  endfacet
  facet normal 0.000000e+000 0.000000e+000 1.000000e+000
    outer loop
      vertex   2.302652e+001 -4.000000e+001 1.000000e+001
      vertex   1.843994e+001 -2.907956e+001 1.000000e+001
      vertex   1.113885e+001 -4.000000e+001 1.000000e+001
    endloop
  endfacet
  facet normal 0.000000e+000 -0.000000e+000 1.000000e+000
    outer loop
      vertex   2.302652e+001 -4.000000e+001 1.000000e+001
      vertex   3.023401e+001 -9.578783e+000 1.000000e+001
      vertex   1.843994e+001 -2.907956e+001 1.000000e+001
    endloop
  endfacet
  facet normal 0.000000e+000 -0.000000e+000 1.000000e+000
    outer loop
      vertex   1.843994e+001 -2.907956e+001 1.000000e+001
      vertex   3.023401e+001 -9.578783e+000 1.000000e+001
      vertex   2.527301e+001 0.000000e+000 1.000000e+001
    endloop
  endfacet
  facet normal -0.000000e+000 0.000000e+000 1.000000e+000
    outer loop
      vertex   2.527301e+001 0.000000e+000 1.000000e+001
      vertex   3.023401e+001 -9.578783e+000 1.000000e+001
      vertex   3.522621e+001 0.000000e+000 1.000000e+001
    endloop
  endfacet
  facet normal 0.000000e+000 0.000000e+000 1.000000e+000
    outer loop
      vertex   3.522621e+001 0.000000e+000 1.000000e+001
      vertex   3.023401e+001 -9.578783e+000 1.000000e+001
      vertex   4.209048e+001 -2.907956e+001 1.000000e+001
    endloop
  endfacet
  facet normal 0.000000e+000 0.000000e+000 1.000000e+000
    outer loop
      vertex   4.209048e+001 -2.907956e+001 1.000000e+001
      vertex   3.023401e+001 -9.578783e+000 1.000000e+001
      vertex   3.747270e+001 -4.000000e+001 1.000000e+001
    endloop
  endfacet
  facet normal 0.000000e+000 0.000000e+000 1.000000e+000
    outer loop
      vertex   4.939158e+001 -4.000000e+001 1.000000e+001
      vertex   4.209048e+001 -2.907956e+001 1.000000e+001
      vertex   3.747270e+001 -4.000000e+001 1.000000e+001
    endloop
  endfacet
  facet normal 0.000000e+000 -0.000000e+000 1.000000e+000
    outer loop
      vertex   4.939158e+001 -4.000000e+001 1.000000e+001
      vertex   5.881435e+001 0.000000e+000 1.000000e+001
      vertex   4.209048e+001 -2.907956e+001 1.000000e+001
    endloop
  endfacet
  facet normal 0.000000e+000 -0.000000e+000 1.000000e+000
    outer loop
      vertex   4.209048e+001 -2.907956e+001 1.000000e+001
      vertex   5.881435e+001 0.000000e+000 1.000000e+001
      vertex   4.901716e+001 0.000000e+000 1.000000e+001
    endloop
  endfacet
  facet normal -0.000000e+000 -0.000000e+000 -1.000000e+000
    outer loop
      vertex   1.151326e+001 0.000000e+000 0.000000e+000
      vertex   1.843994e+001 -2.907956e+001 0.000000e+000
      vertex   1.622465e+000 0.000000e+000 0.000000e+000
    endloop
  endfacet
  facet normal 0.000000e+000 -0.000000e+000 -1.000000e+000
    outer loop
      vertex   1.622465e+000 0.000000e+000 0.000000e+000
      vertex   1.843994e+001 -2.907956e+001 0.000000e+000
      vertex   1.113885e+001 -4.000000e+001 0.000000e+000
    endloop
  endfacet
  facet normal 0.000000e+000 0.000000e+000 -1.000000e+000
    outer loop
      vertex   1.113885e+001 -4.000000e+001 0.000000e+000
      vertex   1.843994e+001 -2.907956e+001 0.000000e+000
      vertex   2.302652e+001 -4.000000e+001 0.000000e+000
    endloop
  endfacet
  facet normal 0.000000e+000 0.000000e+000 -1.000000e+000
    outer loop
      vertex   2.302652e+001 -4.000000e+001 0.000000e+000
      vertex   1.843994e+001 -2.907956e+001 0.000000e+000
      vertex   3.023401e+001 -9.578783e+000 0.000000e+000
    endloop
  endfacet
  facet normal -0.000000e+000 0.000000e+000 -1.000000e+000
    outer loop
      vertex   3.023401e+001 -9.578783e+000 0.000000e+000
      vertex   1.843994e+001 -2.907956e+001 0.000000e+000
      vertex   2.527301e+001 0.000000e+000 0.000000e+000
    endloop
  endfacet
  facet normal -0.000000e+000 0.000000e+000 -1.000000e+000
    outer loop
      vertex   3.522621e+001 0.000000e+000 0.000000e+000
      vertex   3.023401e+001 -9.578783e+000 0.000000e+000
      vertex   2.527301e+001 0.000000e+000 0.000000e+000
    endloop
  endfacet
  facet normal -0.000000e+000 -0.000000e+000 -1.000000e+000
    outer loop
      vertex   3.522621e+001 0.000000e+000 0.000000e+000
      vertex   4.209048e+001 -2.907956e+001 0.000000e+000
      vertex   3.023401e+001 -9.578783e+000 0.000000e+000
    endloop
  endfacet
  facet normal 0.000000e+000 -0.000000e+000 -1.000000e+000
    outer loop
      vertex   3.023401e+001 -9.578783e+000 0.000000e+000
      vertex   4.209048e+001 -2.907956e+001 0.000000e+000
      vertex   3.747270e+001 -4.000000e+001 0.000000e+000
    endloop
  endfacet
  facet normal 0.000000e+000 0.000000e+000 -1.000000e+000
    outer loop
      vertex   3.747270e+001 -4.000000e+001 0.000000e+000
      vertex   4.209048e+001 -2.907956e+001 0.000000e+000
      vertex   4.939158e+001 -4.000000e+001 0.000000e+000
    endloop
  endfacet
  facet normal 0.000000e+000 0.000000e+000 -1.000000e+000
    outer loop
      vertex   4.939158e+001 -4.000000e+001 0.000000e+000
      vertex   4.209048e+001 -2.907956e+001 0.000000e+000
      vertex   5.881435e+001 0.000000e+000 0.000000e+000
    endloop
  endfacet
  facet normal -0.000000e+000 0.000000e+000 -1.000000e+000
    outer loop
      vertex   5.881435e+001 0.000000e+000 0.000000e+000
      vertex   4.209048e+001 -2.907956e+001 0.000000e+000
      vertex   4.901716e+001 0.000000e+000 0.000000e+000
    endloop
  endfacet
endsolid