solid ascii
  facet normal 8.426730e-001 5.384256e-001 0.000000e+000
    outer loop
      vertex   1.987520e+001 -1.425897e+001 1.000000e+001
      vertex   1.987520e+001 -1.425897e+001 0.000000e+000
      vertex   1.076443e+001 0.000000e+000 1.000000e+001
    endloop
  endfacet
  facet normal 8.426730e-001 5.384256e-001 0.000000e+000
    outer loop
      vertex   1.076443e+001 0.000000e+000 1.000000e+001
      vertex   1.987520e+001 -1.425897e+001 0.000000e+000
      vertex   1.076443e+001 0.000000e+000 0.000000e+000
    endloop
  endfacet
  facet normal -8.426730e-001 5.384256e-001 0.000000e+000
    outer loop
      vertex   2.898596e+001 0.000000e+000 1.000000e+001
      vertex   2.898596e+001 0.000000e+000 0.000000e+000
      vertex   1.987520e+001 -1.425897e+001 1.000000e+001
    endloop
  endfacet
  facet normal -8.426730e-001 5.384256e-001 0.000000e+000
    outer loop
      vertex   1.987520e+001 -1.425897e+001 1.000000e+001
      vertex   2.898596e+001 0.000000e+000 0.000000e+000
      vertex   1.987520e+001 -1.425897e+001 0.000000e+000
    endloop
  endfacet
  facet normal 0.000000e+000 1.000000e+000 0.000000e+000
    outer loop
      vertex   4.031201e+001 0.000000e+000 1.000000e+001
      vertex   4.031201e+001 0.000000e+000 0.000000e+000
      vertex   2.898596e+001 0.000000e+000 1.000000e+001
    endloop
  endfacet
  facet normal 0.000000e+000 1.000000e+000 0.000000e+000
    outer loop
      vertex   2.898596e+001 0.000000e+000 1.000000e+001
      vertex   4.031201e+001 0.000000e+000 0.000000e+000
      vertex   2.898596e+001 0.000000e+000 0.000000e+000
    endloop
  endfacet
  facet normal 8.349817e-001 -5.502777e-001 0.000000e+000
    outer loop
      vertex   2.505460e+001 -2.315133e+001 1.000000e+001
      vertex   2.505460e+001 -2.315133e+001 0.000000e+000
      vertex   4.031201e+001 0.000000e+000 1.000000e+001
    endloop
  endfacet
  facet normal 8.349817e-001 -5.502777e-001 0.000000e+000
    outer loop
      vertex   4.031201e+001 0.000000e+000 1.000000e+001
      vertex   2.505460e+001 -2.315133e+001 0.000000e+000
      vertex   4.031201e+001 0.000000e+000 0.000000e+000
    endloop
  endfacet
  facet normal 1.000000e+000 -0.000000e+000 0.000000e+000
    outer loop
      vertex   2.505460e+001 -4.000000e+001 1.000000e+001
      vertex   2.505460e+001 -4.000000e+001 0.000000e+000
      vertex   2.505460e+001 -2.315133e+001 1.000000e+001
    endloop
  endfacet
  facet normal 1.000000e+000 -0.000000e+000 0.000000e+000
    outer loop
      vertex   2.505460e+001 -2.315133e+001 1.000000e+001
      vertex   2.505460e+001 -4.000000e+001 0.000000e+000
      vertex   2.505460e+001 -2.315133e+001 0.000000e+000
    endloop
  endfacet
  facet normal 0.000000e+000 -1.000000e+000 0.000000e+000
    outer loop
      vertex   1.472699e+001 -4.000000e+001 1.000000e+001
      vertex   1.472699e+001 -4.000000e+001 0.000000e+000
      vertex   2.505460e+001 -4.000000e+001 1.000000e+001
    endloop
  endfacet
  facet normal 0.000000e+000 -1.000000e+000 -0.000000e+000
    outer loop
      vertex   2.505460e+001 -4.000000e+001 1.000000e+001
      vertex   1.472699e+001 -4.000000e+001 0.000000e+000
      vertex   2.505460e+001 -4.000000e+001 0.000000e+000
    endloop
  endfacet
  facet normal -1.000000e+000 -0.000000e+000 -0.000000e+000
    outer loop
      vertex   1.472699e+001 -2.315133e+001 1.000000e+001
      vertex   1.472699e+001 -2.315133e+001 0.000000e+000
      vertex   1.472699e+001 -4.000000e+001 1.000000e+001
    endloop
  endfacet
  facet normal -1.000000e+000 -0.000000e+000 -0.000000e+000
    outer loop
      vertex   1.472699e+001 -4.000000e+001 1.000000e+001
      vertex   1.472699e+001 -2.315133e+001 0.000000e+000
      vertex   1.472699e+001 -4.000000e+001 0.000000e+000
    endloop
  endfacet
  facet normal -8.349817e-001 -5.502777e-001 -0.000000e+000
    outer loop
      vertex   -5.304212e-001 0.000000e+000 1.000000e+001
      vertex   -5.304212e-001 0.000000e+000 0.000000e+000
      vertex   1.472699e+001 -2.315133e+001 1.000000e+001
    endloop
  endfacet
  facet normal -8.349817e-001 -5.502777e-001 0.000000e+000
    outer loop
      vertex   1.472699e+001 -2.315133e+001 1.000000e+001
      vertex   -5.304212e-001 0.000000e+000 0.000000e+000
      vertex   1.472699e+001 -2.315133e+001 0.000000e+000
    endloop
  endfacet
  facet normal 0.000000e+000 1.000000e+000 0.000000e+000
    outer loop
      vertex   1.076443e+001 0.000000e+000 1.000000e+001
      vertex   1.076443e+001 0.000000e+000 0.000000e+000
      vertex   -5.304212e-001 0.000000e+000 1.000000e+001
    endloop
  endfacet
  facet normal 0.000000e+000 1.000000e+000 0.000000e+000
    outer loop
      vertex   -5.304212e-001 0.000000e+000 1.000000e+001
      vertex   1.076443e+001 0.000000e+000 0.000000e+000
      vertex   -5.304212e-001 0.000000e+000 0.000000e+000
    endloop
  endfacet
  facet normal -0.000000e+000 0.000000e+000 1.000000e+000
    outer loop
      vertex   1.076443e+001 0.000000e+000 1.000000e+001
      vertex   1.472699e+001 -2.315133e+001 1.000000e+001
      vertex   1.987520e+001 -1.425897e+001 1.000000e+001
    endloop
  endfacet
  facet normal 0.000000e+000 0.000000e+000 1.000000e+000
    outer loop
      vertex   1.076443e+001 0.000000e+000 1.000000e+001
      vertex   -5.304212e-001 0.000000e+000 1.000000e+001
      vertex   1.472699e+001 -2.315133e+001 1.000000e+001
    endloop
  endfacet
  facet normal 0.000000e+000 -0.000000e+000 1.000000e+000
    outer loop
      vertex   1.472699e+001 -4.000000e+001 1.000000e+001
      vertex   2.505460e+001 -4.000000e+001 1.000000e+001
      vertex   1.472699e+001 -2.315133e+001 1.000000e+001
    endloop
  endfacet
  facet normal -0.000000e+000 0.000000e+000 1.000000e+000
    outer loop
      vertex   1.472699e+001 -2.315133e+001 1.000000e+001
      vertex   2.505460e+001 -4.000000e+001 1.000000e+001
      vertex   2.505460e+001 -2.315133e+001 1.000000e+001
    endloop
  endfacet
  facet normal -0.000000e+000 0.000000e+000 1.000000e+000
    outer loop
      vertex   1.987520e+001 -1.425897e+001 1.000000e+001
      vertex   2.505460e+001 -2.315133e+001 1.000000e+001
      vertex   2.898596e+001 0.000000e+000 1.000000e+001
    endloop
  endfacet
  facet normal -0.000000e+000 0.000000e+000 1.000000e+000
    outer loop
      vertex   1.987520e+001 -1.425897e+001 1.000000e+001
      vertex   1.472699e+001 -2.315133e+001 1.000000e+001
      vertex   2.505460e+001 -2.315133e+001 1.000000e+001
    endloop
  endfacet
  facet normal 0.000000e+000 -0.000000e+000 1.000000e+000
    outer loop
      vertex   2.505460e+001 -2.315133e+001 1.000000e+001
      vertex   4.031201e+001 0.000000e+000 1.000000e+001
      vertex   2.898596e+001 0.000000e+000 1.000000e+001
    endloop
  endfacet
  facet normal 0.000000e+000 0.000000e+000 -1.000000e+000
    outer loop
      vertex   -5.304212e-001 0.000000e+000 0.000000e+000
      vertex   1.076443e+001 0.000000e+000 0.000000e+000
      vertex   1.472699e+001 -2.315133e+001 0.000000e+000
    endloop
  endfacet
  facet normal 0.000000e+000 0.000000e+000 -1.000000e+000
    outer loop
      vertex   1.472699e+001 -2.315133e+001 0.000000e+000
      vertex   1.076443e+001 0.000000e+000 0.000000e+000
      vertex   1.987520e+001 -1.425897e+001 0.000000e+000
    endloop
  endfacet
  facet normal 0.000000e+000 0.000000e+000 -1.000000e+000
    outer loop
      vertex   2.505460e+001 -2.315133e+001 0.000000e+000
      vertex   1.987520e+001 -1.425897e+001 0.000000e+000
      vertex   2.898596e+001 0.000000e+000 0.000000e+000
    endloop
  endfacet
  facet normal -0.000000e+000 0.000000e+000 -1.000000e+000
    outer loop
      vertex   4.031201e+001 0.000000e+000 0.000000e+000
      vertex   2.505460e+001 -2.315133e+001 0.000000e+000
      vertex   2.898596e+001 0.000000e+000 0.000000e+000
    endloop
  endfacet
  facet normal 0.000000e+000 0.000000e+000 -1.000000e+000
    outer loop
      vertex   1.472699e+001 -2.315133e+001 0.000000e+000
      vertex   1.987520e+001 -1.425897e+001 0.000000e+000
      vertex   2.505460e+001 -2.315133e+001 0.000000e+000
    endloop
  endfacet
  facet normal 0.000000e+000 0.000000e+000 -1.000000e+000
    outer loop
      vertex   1.472699e+001 -4.000000e+001 0.000000e+000
      vertex   2.505460e+001 -2.315133e+001 0.000000e+000
      vertex   2.505460e+001 -4.000000e+001 0.000000e+000
    endloop
  endfacet
  facet normal 0.000000e+000 0.000000e+000 -1.000000e+000
    outer loop
      vertex   1.472699e+001 -4.000000e+001 0.000000e+000
      vertex   1.472699e+001 -2.315133e+001 0.000000e+000
      vertex   2.505460e+001 -2.315133e+001 0.000000e+000
    endloop
  endfacet
endsolid