solid ascii
  facet normal 1.000000e+000 -0.000000e+000 0.000000e+000
    outer loop
      vertex   3.669267e+001 -6.240250e+000 1.000000e+001
      vertex   3.669267e+001 -6.240250e+000 0.000000e+000
      vertex   3.669267e+001 0.000000e+000 1.000000e+001
    endloop
  endfacet
  facet normal 1.000000e+000 -0.000000e+000 0.000000e+000
    outer loop
      vertex   3.669267e+001 0.000000e+000 1.000000e+001
      vertex   3.669267e+001 -6.240250e+000 0.000000e+000
      vertex   3.669267e+001 0.000000e+000 0.000000e+000
    endloop
  endfacet
  facet normal 7.711002e-001 -6.367138e-001 0.000000e+000
    outer loop
      vertex   1.525741e+001 -3.219969e+001 1.000000e+001
      vertex   1.525741e+001 -3.219969e+001 0.000000e+000
      vertex   3.669267e+001 -6.240250e+000 1.000000e+001
    endloop
  endfacet
  facet normal 7.711002e-001 -6.367138e-001 0.000000e+000
    outer loop
      vertex   3.669267e+001 -6.240250e+000 1.000000e+001
      vertex   1.525741e+001 -3.219969e+001 0.000000e+000
      vertex   3.669267e+001 -6.240250e+000 0.000000e+000
    endloop
  endfacet
  facet normal 0.000000e+000 1.000000e+000 0.000000e+000
    outer loop
      vertex   3.731669e+001 -3.219969e+001 1.000000e+001
      vertex   3.731669e+001 -3.219969e+001 0.000000e+000
      vertex   1.525741e+001 -3.219969e+001 1.000000e+001
    endloop
  endfacet
  facet normal 0.000000e+000 1.000000e+000 0.000000e+000
    outer loop
      vertex   1.525741e+001 -3.219969e+001 1.000000e+001
      vertex   3.731669e+001 -3.219969e+001 0.000000e+000
      vertex   1.525741e+001 -3.219969e+001 0.000000e+000
    endloop
  endfacet
  facet normal 1.000000e+000 9.109158e-016 0.000000e+000
    outer loop
      vertex   3.731669e+001 -4.000000e+001 1.000000e+001
      vertex   3.731669e+001 -4.000000e+001 0.000000e+000
      vertex   3.731669e+001 -3.219969e+001 1.000000e+001
    endloop
  endfacet
  facet normal 1.000000e+000 9.109158e-016 0.000000e+000
    outer loop
      vertex   3.731669e+001 -3.219969e+001 1.000000e+001
      vertex   3.731669e+001 -4.000000e+001 0.000000e+000
      vertex   3.731669e+001 -3.219969e+001 0.000000e+000
    endloop
  endfacet
  facet normal 0.000000e+000 -1.000000e+000 0.000000e+000
    outer loop
      vertex   2.464899e+000 -4.000000e+001 1.000000e+001
      vertex   2.464899e+000 -4.000000e+001 0.000000e+000
      vertex   3.731669e+001 -4.000000e+001 1.000000e+001
    endloop
  endfacet
  facet normal 0.000000e+000 -1.000000e+000 -0.000000e+000
    outer loop
      vertex   3.731669e+001 -4.000000e+001 1.000000e+001
      vertex   2.464899e+000 -4.000000e+001 0.000000e+000
      vertex   3.731669e+001 -4.000000e+001 0.000000e+000
    endloop
  endfacet
  facet normal -1.000000e+000 2.846612e-016 0.000000e+000
    outer loop
      vertex   2.464899e+000 -3.375975e+001 1.000000e+001
      vertex   2.464899e+000 -3.375975e+001 0.000000e+000
      vertex   2.464899e+000 -4.000000e+001 1.000000e+001
    endloop
  endfacet
  facet normal -1.000000e+000 2.846612e-016 0.000000e+000
    outer loop
      vertex   2.464899e+000 -4.000000e+001 1.000000e+001
      vertex   2.464899e+000 -3.375975e+001 0.000000e+000
      vertex   2.464899e+000 -4.000000e+001 0.000000e+000
    endloop
  endfacet
  facet normal -7.706453e-001 6.372644e-001 0.000000e+000
    outer loop
      vertex   2.393136e+001 -7.800312e+000 1.000000e+001
      vertex   2.393136e+001 -7.800312e+000 0.000000e+000
      vertex   2.464899e+000 -3.375975e+001 1.000000e+001
    endloop
  endfacet
  facet normal -7.706453e-001 6.372644e-001 0.000000e+000
    outer loop
      vertex   2.464899e+000 -3.375975e+001 1.000000e+001
      vertex   2.393136e+001 -7.800312e+000 0.000000e+000
      vertex   2.464899e+000 -3.375975e+001 0.000000e+000
    endloop
  endfacet
  facet normal 0.000000e+000 -1.000000e+000 0.000000e+000
    outer loop
      vertex   3.088924e+000 -7.800312e+000 1.000000e+001
      vertex   3.088924e+000 -7.800312e+000 0.000000e+000
      vertex   2.393136e+001 -7.800312e+000 1.000000e+001
    endloop
  endfacet
  facet normal 0.000000e+000 -1.000000e+000 -0.000000e+000
    outer loop
      vertex   2.393136e+001 -7.800312e+000 1.000000e+001
      vertex   3.088924e+000 -7.800312e+000 0.000000e+000
      vertex   2.393136e+001 -7.800312e+000 0.000000e+000
    endloop
  endfacet
  facet normal -1.000000e+000 -2.846612e-016 -0.000000e+000
    outer loop
      vertex   3.088924e+000 0.000000e+000 1.000000e+001
      vertex   3.088924e+000 0.000000e+000 0.000000e+000
      vertex   3.088924e+000 -7.800312e+000 1.000000e+001
    endloop
  endfacet
  facet normal -1.000000e+000 -2.846612e-016 0.000000e+000
    outer loop
      vertex   3.088924e+000 -7.800312e+000 1.000000e+001
      vertex   3.088924e+000 0.000000e+000 0.000000e+000
      vertex   3.088924e+000 -7.800312e+000 0.000000e+000
    endloop
  endfacet
  facet normal 0.000000e+000 1.000000e+000 0.000000e+000
    outer loop
      vertex   3.669267e+001 0.000000e+000 1.000000e+001
      vertex   3.669267e+001 0.000000e+000 0.000000e+000
      vertex   3.088924e+000 0.000000e+000 1.000000e+001
    endloop
  endfacet
  facet normal 0.000000e+000 1.000000e+000 0.000000e+000
    outer loop
      vertex   3.088924e+000 0.000000e+000 1.000000e+001
      vertex   3.669267e+001 0.000000e+000 0.000000e+000
      vertex   3.088924e+000 0.000000e+000 0.000000e+000
    endloop
  endfacet
  facet normal 0.000000e+000 -0.000000e+000 1.000000e+000
    outer loop
      vertex   1.525741e+001 -3.219969e+001 1.000000e+001
      vertex   3.669267e+001 -6.240250e+000 1.000000e+001
      vertex   2.393136e+001 -7.800312e+000 1.000000e+001
    endloop
  endfacet
  facet normal 0.000000e+000 0.000000e+000 1.000000e+000
    outer loop
      vertex   2.464899e+000 -3.375975e+001 1.000000e+001
      vertex   1.525741e+001 -3.219969e+001 1.000000e+001
      vertex   2.393136e+001 -7.800312e+000 1.000000e+001
    endloop
  endfacet
  facet normal -0.000000e+000 0.000000e+000 1.000000e+000
    outer loop
      vertex   2.464899e+000 -3.375975e+001 1.000000e+001
      vertex   2.464899e+000 -4.000000e+001 1.000000e+001
      vertex   1.525741e+001 -3.219969e+001 1.000000e+001
    endloop
  endfacet
  facet normal -0.000000e+000 0.000000e+000 1.000000e+000
    outer loop
      vertex   1.525741e+001 -3.219969e+001 1.000000e+001
      vertex   2.464899e+000 -4.000000e+001 1.000000e+001
      vertex   3.731669e+001 -4.000000e+001 1.000000e+001
    endloop
  endfacet
  facet normal 0.000000e+000 0.000000e+000 1.000000e+000
    outer loop
      vertex   3.731669e+001 -3.219969e+001 1.000000e+001
      vertex   1.525741e+001 -3.219969e+001 1.000000e+001
      vertex   3.731669e+001 -4.000000e+001 1.000000e+001
    endloop
  endfacet
  facet normal 0.000000e+000 -0.000000e+000 1.000000e+000
    outer loop
      vertex   3.669267e+001 -6.240250e+000 1.000000e+001
      vertex   3.669267e+001 0.000000e+000 1.000000e+001
      vertex   2.393136e+001 -7.800312e+000 1.000000e+001
    endloop
  endfacet
  facet normal 0.000000e+000 -0.000000e+000 1.000000e+000
    outer loop
      vertex   2.393136e+001 -7.800312e+000 1.000000e+001
      vertex   3.669267e+001 0.000000e+000 1.000000e+001
      vertex   3.088924e+000 0.000000e+000 1.000000e+001
    endloop
  endfacet
  facet normal 0.000000e+000 -0.000000e+000 1.000000e+000
    outer loop
      vertex   3.088924e+000 -7.800312e+000 1.000000e+001
      vertex   2.393136e+001 -7.800312e+000 1.000000e+001
      vertex   3.088924e+000 0.000000e+000 1.000000e+001
    endloop
  endfacet
  facet normal 0.000000e+000 0.000000e+000 -1.000000e+000
    outer loop
      vertex   3.088924e+000 -7.800312e+000 0.000000e+000
      vertex   3.088924e+000 0.000000e+000 0.000000e+000
      vertex   2.393136e+001 -7.800312e+000 0.000000e+000
    endloop
  endfacet
  facet normal 0.000000e+000 0.000000e+000 -1.000000e+000
    outer loop
      vertex   2.393136e+001 -7.800312e+000 0.000000e+000
      vertex   3.088924e+000 0.000000e+000 0.000000e+000
      vertex   3.669267e+001 0.000000e+000 0.000000e+000
    endloop
  endfacet
  facet normal -0.000000e+000 0.000000e+000 -1.000000e+000
    outer loop
      vertex   3.669267e+001 -6.240250e+000 0.000000e+000
      vertex   2.393136e+001 -7.800312e+000 0.000000e+000
      vertex   3.669267e+001 0.000000e+000 0.000000e+000
    endloop
  endfacet
  facet normal -0.000000e+000 0.000000e+000 -1.000000e+000
    outer loop
      vertex   3.669267e+001 -6.240250e+000 0.000000e+000
      vertex   1.525741e+001 -3.219969e+001 0.000000e+000
      vertex   2.393136e+001 -7.800312e+000 0.000000e+000
    endloop
  endfacet
  facet normal 0.000000e+000 0.000000e+000 -1.000000e+000
    outer loop
      vertex   2.393136e+001 -7.800312e+000 0.000000e+000
      vertex   1.525741e+001 -3.219969e+001 0.000000e+000
      vertex   2.464899e+000 -3.375975e+001 0.000000e+000
    endloop
  endfacet
  facet normal 0.000000e+000 -0.000000e+000 -1.000000e+000
    outer loop
      vertex   2.464899e+000 -3.375975e+001 0.000000e+000
      vertex   1.525741e+001 -3.219969e+001 0.000000e+000
      vertex   2.464899e+000 -4.000000e+001 0.000000e+000
    endloop
  endfacet
  facet normal 0.000000e+000 0.000000e+000 -1.000000e+000
    outer loop
      vertex   2.464899e+000 -4.000000e+001 0.000000e+000
      vertex   1.525741e+001 -3.219969e+001 0.000000e+000
      vertex   3.731669e+001 -4.000000e+001 0.000000e+000
    endloop
  endfacet
  facet normal 0.000000e+000 0.000000e+000 -1.000000e+000
    outer loop
      vertex   3.731669e+001 -4.000000e+001 0.000000e+000
      vertex   1.525741e+001 -3.219969e+001 0.000000e+000
      vertex   3.731669e+001 -3.219969e+001 0.000000e+000
    endloop
  endfacet
endsolid